<?xml version="1.0" standalone="no"?><!DOCTYPE svg PUBLIC "-//W3C//DTD SVG 1.1//EN" "http://www.w3.org/Graphics/SVG/1.1/DTD/svg11.dtd"><svg t="1607071628934" class="icon" viewBox="0 0 1024 1024" version="1.1" xmlns="http://www.w3.org/2000/svg" p-id="7898" xmlns:xlink="http://www.w3.org/1999/xlink" width="64" height="64"><defs><style type="text/css"></style></defs><path d="M831.3 232.9h-90.7v31.7c0 33.5-27.2 60.7-60.7 60.7s-60.7-27.2-60.7-60.7v-31.7H186.7c-65.6 0-118.8 53.2-118.8 118.8v314c0 65.6 53.2 118.8 118.8 118.8h432.5v-31.7c0-33.5 27.2-60.7 60.7-60.7s60.7 27.2 60.7 60.7v31.7h90.7c65.6 0 118.8-53.2 118.8-118.8v-314c0-65.7-53.2-118.8-118.8-118.8z" fill="#FAB001" p-id="7899"></path><path d="M884.7 245.6c-16.1-8.1-34.1-12.8-53.4-12.8h-90.7v29.1c0 31.7-23.2 60-54.8 63-36.2 3.5-66.7-24.9-66.7-60.4v-31.7H186.7c-65.6 0-118.8 53.2-118.8 118.8v314c0 29.5 10.8 56.4 28.6 77.2h523.7C625 714 649.8 692 679.9 692s55 22 59.7 50.8h50.2c52.4 0 94.9-42.5 94.9-94.9V245.6z" fill="#F9E48A" p-id="7900"></path><path d="M725.3 303.9c-9.8 11.6-23.5 19.5-39.4 21-20.9 2-39.8-6.6-52.1-21H245.2c-62.9 0-113.9 51-113.9 113.9v325h488.9C625 714 649.8 692 679.9 692s55 22 59.7 50.8h50.2c52.4 0 94.9-42.5 94.9-94.9v-344H725.3z" fill="#FECE0A" p-id="7901"></path><path d="M633 381.1h91.9v88.6H633zM633 549.5h91.9v88.6H633z" fill="#FAB001" p-id="7902"></path></svg>