<?xml version="1.0" standalone="no"?><!DOCTYPE svg PUBLIC "-//W3C//DTD SVG 1.1//EN" "http://www.w3.org/Graphics/SVG/1.1/DTD/svg11.dtd"><svg t="1607085233187" class="icon" viewBox="0 0 1024 1024" version="1.1" xmlns="http://www.w3.org/2000/svg" p-id="5495" xmlns:xlink="http://www.w3.org/1999/xlink" width="64" height="64"><defs><style type="text/css"></style></defs><path d="M512.517067 1023.896587H4.653605c-3.722884 0-4.550192-0.827308-4.550192-4.550192V4.550192C0.103413 0.827308 0.930721 0 4.653605 0h1015.726924c3.722884 0 4.550192 0.827308 4.550192 4.550192v1014.796203c0 3.722884-0.827308 4.550192-4.550192 4.550192z" fill="#FEFEFE" p-id="5496"></path><path d="M83.041002 641.370228a331.95718 331.95718 0 0 1-12.719855-51.706726 410.965058 410.965058 0 0 1-6.825288-78.80105A448.607554 448.607554 0 0 1 410.654817 75.388406a428.028277 428.028277 0 0 1 118.718643-11.065239 448.297314 448.297314 0 0 1 417.169865 342.919006 438.369622 438.369622 0 0 1 11.68572 82.730762 447.056352 447.056352 0 0 1-18.304181 150.259745 10.341345 10.341345 0 0 1-0.930721 1.758029 5.791153 5.791153 0 0 1-3.826298 0.827308h-85.005858a20.68269 20.68269 0 0 1-8.376489-0.827308c-2.378509-2.068269-0.827308-4.343365 0-6.411634a212.514644 212.514644 0 0 0 10.341345-46.536053c0.930721-8.790143 0-17.580287 0-26.370431a22.440719 22.440719 0 0 1 0.723894-7.859422c1.551202-2.275096 3.826298-1.447788 5.894567-1.240961a99.483741 99.483741 0 0 0 19.855383 0c20.06221-2.481923 37.332256-24.715815 39.297111-43.74389a5.274086 5.274086 0 0 0-2.481922-5.480913 21.923652 21.923652 0 0 0-7.445769-6.308221c-0.620481 0-1.447788-0.620481-1.551202-1.137548 0-5.894567-5.480913-6.411634-9.30721-8.37649-0.827308-2.171682 0.620481-3.826298 1.447788-5.480913 5.377499-10.341345 11.37548-19.855383 16.649566-29.989901a12.616441 12.616441 0 0 0 1.551201-3.102403 1.758029 1.758029 0 0 0-0.930721-2.068269 1.447788 1.447788 0 0 0-2.068269 0.620481 34.436679 34.436679 0 0 0-1.551201 3.102403l-14.477884 28.955767c-0.930721 1.861442-1.447788 4.239952-3.929711 4.860432a6.721874 6.721874 0 0 1-4.550192-3.516057 99.587154 99.587154 0 0 1 7.238942-20.682691c2.171682-6.101394 4.550192-12.099374 6.928701-18.200767 0-1.240961 1.551202-3.102404-0.517067-3.722885s-2.068269 1.344375-2.481923 2.481923c-4.653605 12.099374-8.169663 24.612402-12.823268 36.711776-0.620481 1.654615-0.620481 3.722884-2.68875 4.446778a24.405575 24.405575 0 0 1-16.752979-3.516057 15.512018 15.512018 0 0 0-20.68269 4.757018c-3.412644 3.929711-5.894567 0-8.68673-0.62048a56.153504 56.153504 0 0 1-7.135528-15.305191 310.240355 310.240355 0 0 0-37.539083-64.012927c-1.551202-1.964856-4.033125-3.722884-2.998991-6.928701 4.446778-3.102404 10.341345-2.068269 14.788124-3.929711a51.706726 51.706726 0 0 0 32.988891-34.126439 26.887497 26.887497 0 0 0 1.964856-8.68673 52.058332 52.058332 0 1 0-103.413452-12.099374 7.135528 7.135528 0 0 1-1.034135 4.239951c-3.102404 0.723894-4.860432-1.654615-6.928701-3.205817a391.109675 391.109675 0 0 0-60.290042-37.74591 381.802464 381.802464 0 0 0-108.894365-34.333266c-3.929711-0.620481-8.479903 0.517067-11.68572-3.102403a79.111291 79.111291 0 0 1 0-16.339326c0-3.826298-1.344375-4.860432-4.963846-4.860432a32.471824 32.471824 0 0 1-12.306201-0.723894c-1.551202-1.344375-0.620481-2.792163 0-4.033125a18.717835 18.717835 0 0 0 1.240962-13.547162 2.895577 2.895577 0 0 1 0.827308-3.619471 31.024036 31.024036 0 0 1 11.789133-0.827307c3.412644 0 5.067259-1.137548 5.480913-4.757019 0.930721-7.549182 0.723894-15.201777 1.654615-22.854373a18.097354 18.097354 0 0 1 0.723894-5.377499c2.378509-1.964856 6.825288-2.792163 4.446779-7.549182 0-0.930721-0.620481-1.964856-1.551202-2.37851-2.792163-1.240961-3.516057-3.722884-4.343365-6.204807s-3.102404-2.792163-5.274086-2.792163h-56.567158c-4.963846 0-5.170673 3.619471-6.308221 6.825288a2.99899 2.99899 0 0 1-0.930721 1.137548c-6.308221 4.033125-6.308221 6.928701 0 10.341345a8.273076 8.273076 0 0 1 1.654615 5.584326c0 7.135528 1.240961 14.167643 1.137548 21.303171 0 5.480913 1.034135 6.204807 6.515048 6.411634a35.367401 35.367401 0 0 1 11.272066 0.723895 2.378509 2.378509 0 0 1 0.930721 3.102403 20.68269 20.68269 0 0 0 1.654615 15.408605 1.964856 1.964856 0 0 1 0 2.688749 29.472834 29.472834 0 0 1-11.68572 0.930721c-6.308221 0-6.515047 0-5.791153 6.411634a35.470814 35.470814 0 0 1 0 12.202788c-2.792163 3.412644-7.032115 2.68875-10.341345 2.895576a352.536457 352.536457 0 0 0-103.413452 24.922642 363.291456 363.291456 0 0 0-102.379317 62.978792 343.229247 343.229247 0 0 0-56.256918 62.048071 292.039588 292.039588 0 0 0-31.644516 55.946678 8.479903 8.479903 0 0 1-3.412644 4.757019 255.638053 255.638053 0 0 0-27.404565 4.653605 65.460715 65.460715 0 0 0-17.063219 6.721874 10.341345 10.341345 0 0 0-5.3775 12.513028 172.286811 172.286811 0 0 0 10.341345 28.128459 5.894567 5.894567 0 0 1-2.275096 8.68673c-9.203797 6.308221-8.790143 12.409614 1.034135 17.993941a67.735811 67.735811 0 0 0 16.856392 5.99798c1.861442 0 4.033125 0 5.274086 2.378509a19.131489 19.131489 0 0 1 0.620481 7.445769 193.072915 193.072915 0 0 0 8.479903 60.910523c0.930721 2.99899 3.102404 6.101394 0.827308 9.514037a12.823268 12.823268 0 0 1-8.066249 1.964856H86.970713a12.616441 12.616441 0 0 1-3.929711-0.620481z" fill="#FEC247" p-id="5497"></path><path d="M841.371844 641.370228h90.383357a28.128459 28.128459 0 0 1 7.342355 1.034135l-3.205817 10.961826c-2.171682 0.723894-2.378509 2.275096-1.654615 4.136538l-2.171683 5.894566a7.962836 7.962836 0 0 0-2.895576 8.169663 433.50919 433.50919 0 0 1-34.953747 71.562109c-8.583317 14.167643-18.097354 27.507978-27.921632 40.7449a432.992123 432.992123 0 0 1-93.072107 90.900424l-2.068269 1.344375a3.412644 3.412644 0 0 1-0.62048-2.37851c0-12.202787 1.551202-24.405575 2.378509-36.608361a9.100384 9.100384 0 0 1 1.964856-4.963846 10.858412 10.858412 0 0 0 1.861442-10.341345 11.272066 11.272066 0 0 0-2.792164-11.478893c-1.861442-1.861442-1.861442-5.170673-3.722884-6.928702a130.300949 130.300949 0 0 1-13.650575-18.407594 23.164613 23.164613 0 0 0-21.509998-6.618461c3.30923 6.308221 1.654615 9.307211-5.274086 9.720864a31.024036 31.024036 0 0 0-8.790144 1.240962c-4.136538 1.447788-5.584326 4.033125-4.136538 8.066249s0 4.963846-2.895577 5.894567a13.547162 13.547162 0 0 0-5.99798 4.239951c-4.343365 4.653605-4.550192 6.308221-1.240961 11.68572a10.341345 10.341345 0 0 0 1.551202 12.926682 14.064229 14.064229 0 0 1 2.275096 8.583316c0.620481 10.341345 1.861442 20.68269 2.275095 31.851344 0 8.273076 1.344375 9.410624 9.720865 9.410624h30.403555c2.275096 0 4.757019 0 6.411634 1.758028a380.251262 380.251262 0 0 1-74.664512 40.12442c-3.205817 0-3.30923-3.412644-4.136539-5.480913a389.661886 389.661886 0 0 0-39.090284-70.941628c-7.445769-10.341345-15.512018-20.68269-23.785094-31.024036-1.137548-1.344375-2.792163-2.481923-2.275096-4.653605a7.549182 7.549182 0 0 1 4.446778-2.068269 383.974147 383.974147 0 0 0 120.890325-50.465765 252.018582 252.018582 0 0 0 29.783075-22.544132 20.06221 20.06221 0 0 1 8.169662-5.480913 126.784892 126.784892 0 0 0 23.268027 2.171682 175.802868 175.802868 0 0 0 43.330236-5.99798 28.231872 28.231872 0 0 0 13.753989-7.549182 15.718845 15.718845 0 0 0 1.551202-20.68269 54.292062 54.292062 0 0 1-5.791153-8.066249 4.446778 4.446778 0 0 1 0.930721-4.653606c4.033125-4.550192 6.515047-10.341345 13.857402-11.789133a5.170673 5.170673 0 0 0 2.37851-8.68673 8.790143 8.790143 0 0 0-14.271057 0c-2.792163 1.654615-1.551202 3.516057 0 5.377499a18.304181 18.304181 0 0 1-14.374469 9.410624c-3.205817-1.758029-7.445769-1.964856-9.410624-5.687739a19.234902 19.234902 0 0 1 13.030094-11.168653c2.895577-0.930721 5.584326-1.344375 6.204808-4.757019s-2.068269-5.274086-4.550192-7.032115-6.928701-0.930721-9.720865-3.412644a5.894567 5.894567 0 0 1 2.481923-7.342355z" fill="#FEB047" p-id="5498"></path><path d="M83.041002 641.370228c1.654615-1.758029 3.722884-1.034135 5.68774-1.034134h68.356291a50.569178 50.569178 0 0 0 13.857403-1.034135 2.895577 2.895577 0 0 1 1.551202 2.895577c-1.447788 2.481923 0 3.929711 1.964855 4.860432a9.514038 9.514038 0 0 1 2.275096 4.963846c-1.344375 2.99899-0.620481 5.067259 2.68875 5.99798 2.99899 4.033125 4.239952 9.100384 7.549182 12.926681 1.034135 1.758029 2.481923 3.516057 1.137548 5.791154a68.459705 68.459705 0 0 1-10.341345 4.653605 34.643506 34.643506 0 0 0-16.959806 40.7449 16.442739 16.442739 0 0 0 6.515047 9.203797 62.048071 62.048071 0 0 0 34.540093 11.478893 159.877197 159.877197 0 0 0 38.159564-2.481922 10.341345 10.341345 0 0 1 3.412644 0 10.341345 10.341345 0 0 1 4.653605 2.688749 332.267421 332.267421 0 0 0 77.043022 45.191679 16.649566 16.649566 0 0 1 4.343365 2.378509 30.093314 30.093314 0 0 0 10.341345 6.825288c1.758029 0.827308 3.826298 1.240961 4.550192 3.412644a8.37649 8.37649 0 0 1-3.309231 8.169663h-46.225813a135.368208 135.368208 0 0 0-27.714805 3.102403c-7.342355 1.551202-8.066249 2.895577-7.342355 10.341345s1.240961 15.512018 1.551202 23.371441 1.034135 17.06322 1.758028 25.543122a19.648556 19.648556 0 0 1-1.137548 12.513028 409.724096 409.724096 0 0 1-52.844273-41.365381A446.332458 446.332458 0 0 1 83.247829 643.852151a11.582307 11.582307 0 0 1-0.206827-2.481923z" fill="#FEB147" p-id="5499"></path><path d="M448.710967 955.230055a394.005251 394.005251 0 0 1-76.939608-18.200768 6.308221 6.308221 0 0 1-0.62048-6.204807 388.007271 388.007271 0 0 1 31.644516-86.8673 16.339325 16.339325 0 0 1 7.756009-8.066249 130.61119 130.61119 0 0 1 42.709755-11.168653 153.775803 153.775803 0 0 1 97.312059 17.683701 56.050091 56.050091 0 0 1 23.474853 27.611391 179.215512 179.215512 0 0 1 14.891537 63.702687 126.371238 126.371238 0 0 1 0.930721 13.960816 7.342355 7.342355 0 0 1-1.344375 5.170672 138.367199 138.367199 0 0 1-22.027065 3.205817 3.929711 3.929711 0 0 1-2.378509-2.378509 93.796001 93.796001 0 0 0-19.234902-23.888508c-10.341345-10.341345-21.716825-20.165623-32.05817-31.024035-4.239952-4.343365-4.136538-4.136538-8.68673 0-13.443749 12.099374-26.680671 24.508988-40.227833 36.504948a68.252878 68.252878 0 0 0-11.789134 15.408605c-0.827308 2.171682-1.137548 4.343365-3.412644 4.550192z" fill="#FA665A" p-id="5500"></path><path d="M588.939608 952.748132a225.751565 225.751565 0 0 0-12.616441-74.664513 68.149465 68.149465 0 0 0-46.122399-44.260957 163.496667 163.496667 0 0 0-31.644517-7.445768c0-3.929711 3.516057-3.30923 5.99798-3.412644 9.100384 0 18.200768 0 27.301152-0.930721a478.287215 478.287215 0 0 0 76.939608-10.341346c2.171682 0 4.446778-1.551202 6.618461 0a442.092507 442.092507 0 0 1 44.778024 63.185619 414.377701 414.377701 0 0 1 23.0612 46.846294 15.305191 15.305191 0 0 0 1.240962 2.068269 104.447586 104.447586 0 0 1-19.028075 8.066249 422.754191 422.754191 0 0 1-75.595234 20.682691 6.411634 6.411634 0 0 1-0.930721 0.206827z" fill="#EF4D4D" p-id="5501"></path><path d="M448.710967 955.230055c7.238942-15.822258 20.68269-25.74995 33.195719-37.12543 7.859422-7.342355 16.029085-14.477883 23.888507-21.820238 1.861442-1.758029 2.895577-2.481923 5.170672 0 13.443749 13.030095 27.094324 25.956776 40.744901 38.780044a68.252878 68.252878 0 0 1 14.788123 20.682691 22.544132 22.544132 0 0 1-11.065239 1.758028 416.549384 416.549384 0 0 1-57.601293 2.06827 390.282367 390.282367 0 0 1-49.12139-4.343365z" fill="#F1F1F1" p-id="5502"></path><path d="M777.255504 820.2755a8.273076 8.273076 0 0 1-0.517067 11.68572 11.789134 11.789134 0 0 0-2.481923 7.135528c-1.240961 12.306201-1.034135 24.612402-2.99899 36.918602a52.844274 52.844274 0 0 1-11.995961 8.06625c-10.341345-0.827308-20.68269 0-30.300141 0h-11.582307c-3.826298 0-5.067259-1.034135-5.377499-4.653606 0-6.101394-1.447788-12.099374-1.654615-18.200767 0-8.066249-1.034135-16.132498-1.964856-24.095334a10.341345 10.341345 0 0 0-2.171682-4.653606c-3.516057-5.791153-4.343365-8.893557 0-12.719854 1.551202-1.964856 3.826298-1.861442 5.894566-1.861442h58.635427c2.481923-0.31024 5.170673-0.517067 6.515048 2.378509z" fill="#E69542" p-id="5503"></path><path d="M261.946273 883.357706l-1.964855-38.262978c2.171682-3.929711 6.308221-4.239952 10.341345-4.963845a255.84488 255.84488 0 0 1 56.153504-2.68875c1.447788 0 3.412644 0 3.516058 1.964855s-1.861442 2.275096-3.205817 2.481923c-5.791153 0.930721-11.582307 0-17.37346 1.551202a32.264997 32.264997 0 0 0-9.410624 2.171683c1.344375 2.378509 3.722884 2.275096 5.584326 2.895576a134.437487 134.437487 0 0 0 18.614421 3.102404c6.204807 0.930721 6.204807 1.137548 4.963846 7.342355q-1.344375 4.239952-2.481923 8.479903c-0.827308 3.102404 0.827308 2.895577 2.895577 2.378509s2.378509-2.068269 2.895577-3.61947 1.654615-5.99798 2.585336-8.996971c2.378509-7.652595 8.790143-6.411634 14.581297-6.515047 1.861442 1.344375 1.137548 3.30923 0.930721 5.067259-2.68875 21.716825-5.68774 43.330236-9.617451 64.840234 0 1.551202 0 3.412644-1.861442 4.343365-6.308221-1.964856-11.99596-5.274086-18.097355-7.756009-2.585336-1.034135 0-3.619471-1.964855-4.343365 0-2.792163 2.171682-5.170673 2.585336-7.962836 0-1.034135 1.034135-2.378509 0-3.102403a3.30923 3.30923 0 0 0-3.30923 0.723894 7.135528 7.135528 0 0 0-2.481923 4.239952c-0.723894 2.171682 0 4.653605-2.585336 6.30822-6.928701-2.481923-12.823268-6.928701-19.441729-10.341345a2.99899 2.99899 0 0 1-2.171683-2.99899c0-4.239952-1.240961-8.273076-1.034134-12.306201 0.517067-10.341345-1.654615-20.68269-1.034135-31.024035 0-2.68875-0.723894-3.826298-3.619471-3.929712a41.365381 41.365381 0 0 1-10.341345-1.344374c-4.653605-1.447788-4.757019 1.034135-4.446778 4.239951 0.930721 10.341345 1.964856 21.406585 2.895576 32.05817a20.68269 20.68269 0 0 1 0 2.37851 43.226823 43.226823 0 0 1-12.099374-6.411634z" fill="#D1ECFE" p-id="5504"></path><path d="M452.537265 826.376894a131.852151 131.852151 0 0 0-41.985861 10.341345 13.443749 13.443749 0 0 0-6.308221 6.721874 359.154918 359.154918 0 0 0-28.438699 74.767926 71.458695 71.458695 0 0 0-4.033125 18.821248 69.597253 69.597253 0 0 1-14.477883-5.067259 11.68572 11.68572 0 0 1-1.034134-6.825288c0-11.892547 1.551202-23.785094 2.378509-35.677641 0.517067-7.549182 0.517067-15.201777 1.861442-22.750959a110.54898 110.54898 0 0 1 14.271056-23.164613 352.32963 352.32963 0 0 1 22.337306-28.645527 6.928701 6.928701 0 0 1 3.516057-2.688749 74.871339 74.871339 0 0 1 22.647546 4.550192 104.757827 104.757827 0 0 0 22.854373 3.929711 20.68269 20.68269 0 0 1 5.3775 0.930721c2.275096 0.930721 2.99899 2.378509 1.034134 4.757019z" fill="#E94949" p-id="5505"></path><path d="M361.430014 865.053525l-4.757019 66.908503a117.994749 117.994749 0 0 1-18.407594-7.032115c2.275096-14.271056 4.757019-28.542113 6.928701-42.916582 1.551202-10.341345 2.68875-20.68269 4.033125-31.024036-1.447788-4.136538-0.620481-8.893557 1.964855-9.514037a6.515047 6.515047 0 0 1 8.479903 3.826297c0.620481 1.447788 2.275096 1.861442 3.102404 3.102404a24.819228 24.819228 0 0 1-1.344375 16.649566z" fill="#BCE7FE" p-id="5506"></path><path d="M312.515451 913.037366l2.275096-9.617451c0-1.137548 0.723894-2.171682 2.068269-2.481923s4.446778-1.964856 6.101394-0.62048 0 3.619471-0.723894 5.377499 0 5.791153-3.516057 7.135528c-2.068269-0.206827-4.136538 1.034135-6.204808 0.206827z" fill="#E26862" p-id="5507"></path><path d="M929.066451 671.256716c-2.585336-4.239952-2.068269-5.894567 2.895577-8.169663a20.68269 20.68269 0 0 1-2.895577 8.169663zM934.237124 657.399313c-1.240961-0.620481-2.481923-1.240961-1.551202-2.99899s1.654615-2.171682 3.205817-1.137548z" fill="#FEC247" p-id="5508"></path><path d="M187.902242 676.220562c0-1.964856-1.447788-3.412644-2.068269-5.06726a11.168653 11.168653 0 0 1 1.344375-6.204807 174.044839 174.044839 0 0 0 10.341345-59.669561 145.916381 145.916381 0 0 0-30.506968-89.142396 4.343365 4.343365 0 0 1-0.620481-1.447788 117.581095 117.581095 0 0 1 7.445769-27.611392c2.171682-3.929711 2.585336-8.68673 5.99798-11.99596a306.414058 306.414058 0 0 1 22.027065-42.916583 362.981216 362.981216 0 0 1 232.887093-162.462533 450.262169 450.262169 0 0 1 51.706726-7.032114 64.219754 64.219754 0 0 1 23.474854-2.171683c10.341345 0.827308 20.68269 0 31.024036 1.758029a14.994951 14.994951 0 0 1 8.479903 2.481923 385.939002 385.939002 0 0 1 80.869319 19.028075 373.219148 373.219148 0 0 1 101.241769 55.326197l4.860432 3.516057a53.257928 53.257928 0 0 1 14.477884 11.065239 8.273076 8.273076 0 0 0 7.445768 2.99899 3.826298 3.826298 0 0 1 4.963846 3.619471c0 6.515047 4.653605 10.341345 8.99697 13.547162a29.266007 29.266007 0 0 1 7.652596 10.341346 23.68168 23.68168 0 0 0 1.758028 6.721874 94.106241 94.106241 0 0 1 7.342355 33.402545 248.192284 248.192284 0 0 1-21.923651 118.718643c-3.102404 6.825288-6.825288 13.340335-10.341346 19.958796-1.137548 2.171682-2.068269 4.653605-5.067259 4.963845s-2.792163-2.68875-3.412644-4.550191a220.994547 220.994547 0 0 0-93.072106-110.54898 273.83882 273.83882 0 0 0-94.623309-37.332257 286.248435 286.248435 0 0 0-77.456675-3.826297 268.874975 268.874975 0 0 0-104.344173 29.783074 239.195314 239.195314 0 0 0-95.036962 85.005857 159.463543 159.463543 0 0 0-26.577257 95.55403 140.538881 140.538881 0 0 0 22.233892 68.046051c2.481923 3.929711 5.170673 7.756009 7.652595 11.68572 0.930721 1.447788 2.895577 3.102404 1.034135 5.170673a24.922642 24.922642 0 0 1-12.306201 0 356.362755 356.362755 0 0 1-75.181579-11.995961 32.264997 32.264997 0 0 1-12.719855-18.717834z" fill="#FA665A" p-id="5509"></path><path d="M751.402141 567.843264c2.275096 0 2.99899-2.585336 3.929711-4.136538a241.573823 241.573823 0 0 0 32.05817-114.582105 237.850939 237.850939 0 0 0-2.068269-39.400525 78.077156 78.077156 0 0 0-5.067259-16.546152 20.06221 20.06221 0 0 1-1.964856-9.100384 3.516057 3.516057 0 0 1 3.722885 1.861442 53.464755 53.464755 0 0 1 9.100383 12.202788c4.550192 6.515047 9.307211 12.926681 13.75399 19.441728a302.380933 302.380933 0 0 1 33.092304 63.392446 16.442739 16.442739 0 0 0 1.137548 2.068269 96.277924 96.277924 0 0 1 8.37649 21.509998 27.818219 27.818219 0 0 1 1.551202 10.341346 170.321955 170.321955 0 0 0-20.682691 36.504948 161.014744 161.014744 0 0 0-4.136538 105.585134c1.240961 4.446778 2.792163 8.893557 3.826298 13.443749a6.411634 6.411634 0 0 1 0 1.551202 100.931529 100.931529 0 0 1-12.202788 20.68269 230.508584 230.508584 0 0 1-32.67865 37.228843 19.648556 19.648556 0 0 1-4.033125 2.792163 365.256312 365.256312 0 0 1-48.397495 35.367401 388.627752 388.627752 0 0 1-94.106242 39.503938c-6.721874 1.861442-13.443749 3.412644-20.165623 5.067259-11.37548 2.171682-22.647546 4.550192-34.126439 6.411634s-19.958796 2.585336-29.989901 3.516058a442.402747 442.402747 0 0 1-48.707736 2.068269c-1.758029 0-3.30923 0-4.136538 1.964855a164.530802 164.530802 0 0 0-46.018986 0c0.930721-4.860432-2.99899-3.722884-5.274086-3.929711a84.385377 84.385377 0 0 1-23.785094-3.722884 148.915371 148.915371 0 0 0-23.68168-5.377499 51.706726 51.706726 0 0 1-16.959806-2.998991c-7.652595-1.964856-15.408604-4.136538-22.957787-6.721874-5.68774-1.964856-5.68774-1.861442-8.169662 3.619471a5.067259 5.067259 0 0 1-1.447789 1.964855 10.961826 10.961826 0 0 1-5.894566 1.654616c-1.654615 0-3.412644 0-2.585337-2.585337a31.024036 31.024036 0 0 0 2.068269-7.962835 3.205817 3.205817 0 0 1 1.240962-3.102404 18.614421 18.614421 0 0 1 5.894567-2.481923 3.929711 3.929711 0 0 0 2.585336-3.30923 1.034135 1.034135 0 0 0-0.930721-1.447789 4.653605 4.653605 0 0 0-4.343365 1.758029c-1.344375 1.758029-1.137548 4.550192-3.619471 5.68774a31.74793 31.74793 0 0 1-15.822258-6.101394 380.044435 380.044435 0 0 1-55.946678-29.05918 324.201171 324.201171 0 0 1-28.955766-20.68269 32.05817 32.05817 0 0 1-12.099374-9.100384 217.168249 217.168249 0 0 1-30.093314-33.505958c-1.034135-1.447788-3.102404-2.792163-1.758029-5.170673 11.892547 2.68875 23.68168 5.791153 35.884468 7.445769 10.341345 1.344375 20.68269 2.895577 31.024035 3.619471 7.445769 0 14.788124 1.344375 22.233892 1.964855 3.30923 0 4.343365 2.792163 5.894567 4.757019a221.615027 221.615027 0 0 0 53.981822 45.398505c2.792163 1.654615 5.170673 3.30923 7.342355-0.723894 0.827308-1.551202 2.792163-1.758029 4.446778-1.964855 4.239952-0.723894 5.584326 0.620481 4.860433 4.860432-1.034135 6.515047-1.034135 6.618461 4.757019 9.410624a306.931125 306.931125 0 0 0 90.073116 26.887497 315.100788 315.100788 0 0 0 64.219754 2.792164 294.624924 294.624924 0 0 0 152.534841-48.81115 193.486568 193.486568 0 0 0 59.979802-62.048071 141.366189 141.366189 0 0 0 20.06221-70.734801 160.497677 160.497677 0 0 0-5.584327-42.916582c-1.758029-2.99899-2.792163-4.860432-1.240961-6.101394z" fill="#F55954" p-id="5510"></path><path d="M771.050697 374.460109c-4.446778-3.205817-9.307211-5.99798-9.203797-12.719855 0-3.412644-1.861442-5.377499-5.584327-3.61947a2.895577 2.895577 0 0 1-3.619471-0.723894l-16.752979-14.891538a53.257928 53.257928 0 0 1 106.412442-3.205817 58.11836 58.11836 0 0 1 0 11.37548 20.68269 20.68269 0 0 0-5.791153 5.274086c-1.861442 2.99899-4.136538 2.895577-6.308221 0-1.758029-2.068269-2.895577-5.99798-6.101393-4.963845s-2.481923 5.274086-2.895577 8.273076v2.99899a6.204807 6.204807 0 0 1-2.99899 5.894567c-2.585336 1.240961-4.343365 0-6.204807-1.861443-5.170673-3.826298-6.825288-3.412644-9.514038 2.68875a143.641285 143.641285 0 0 1-6.721874 14.37447c-1.447788 2.481923-2.895577 5.170673-6.204807 4.963846s-4.860432-2.68875-6.101394-5.274086a71.458695 71.458695 0 0 1-3.619471-9.307211c-0.620481-1.861442-1.240961-4.033125-3.619471-4.239952s-2.68875 2.068269-3.61947 3.619471a3.722884 3.722884 0 0 1-1.551202 1.344375z" fill="#704227" p-id="5511"></path><path d="M735.373056 194.72753v0.827307c0 5.377499 1.240961 9.203797 8.37649 10.341346s8.893557 8.479903 9.30721 14.788123a71.355282 71.355282 0 0 1-0.620481 19.855383 13.030095 13.030095 0 0 1-11.99596 11.892547c-3.826298 0-4.033125 1.964856-4.239951 4.963846a33.712785 33.712785 0 0 1-0.930722 14.167643 4.446778 4.446778 0 0 1-1.344374-3.102404c0-5.99798-1.654615-6.204807-7.549182-6.204807h-38.883458a10.341345 10.341345 0 0 1-7.135528-1.551202v-67.735811a47.673601 47.673601 0 0 1 15.718844-3.412644c2.68875 0 4.446778 1.654615 6.308221 3.412644s4.860432 2.792163 7.135528-0.723894a10.341345 10.341345 0 0 1 9.617451-4.757019c4.136538 0 8.273076 0.723894 12.306201 1.240962s5.894567 1.964856 3.929711 5.99798z" fill="#EA9B45" p-id="5512"></path><path d="M167.012725 514.481923a55.843264 55.843264 0 0 1 11.789133 16.442739 151.500707 151.500707 0 0 1 19.338316 64.11634 174.561907 174.561907 0 0 1-11.582307 74.974752 7.238942 7.238942 0 0 1-0.930721 1.240962 42.916583 42.916583 0 0 1-7.135528-12.823268c-2.378509-1.344375-2.585336-3.619471-2.792163-5.99798l-2.171683-4.963846a5.68774 5.68774 0 0 1-1.758029-4.963846l-1.137547-2.99899a296.176126 296.176126 0 0 1-9.203798-40.641486 291.21228 291.21228 0 0 1-1.447788-37.12543 98.346193 98.346193 0 0 1 1.654615-27.507978 104.344173 104.344173 0 0 1 2.68875-14.581297 7.652595 7.652595 0 0 1 2.68875-5.170672zM826.790547 671.256716a178.491618 178.491618 0 0 1-11.168652-70.114321 147.364169 147.364169 0 0 1 31.024035-85.212684 10.341345 10.341345 0 0 1 1.447788-1.344375c1.861442 0.620481 2.378509 2.275096 2.68875 3.929711a224.924258 224.924258 0 0 1 4.033125 34.12644 2.378509 2.378509 0 0 1-0.723894 1.758028 205.275702 205.275702 0 0 1-6.618461 68.976773c-1.861442 5.99798-3.826298 11.99596-5.791154 17.890527a13.340335 13.340335 0 0 0-2.275096 7.962836 10.341345 10.341345 0 0 1-1.447788 3.722884c-1.964856 3.826298-3.929711 7.652595-5.791153 11.582306-2.171682 2.171682-1.758029 6.721874-5.3775 6.721875z" fill="#F5F5F5" p-id="5513"></path><path d="M179.629166 340.33367a44.881438 44.881438 0 0 1 31.851343-54.80913 45.708746 45.708746 0 0 1 56.877398 36.401536 34.126439 34.126439 0 0 1 0 15.718844c-1.964856 0-3.102404 0.827308-4.136538 2.171683-2.171682 3.102404-4.343365 2.275096-6.515047 0l-1.551202-1.964856c-0.827308-1.034135-1.654615-2.378509-3.205817-1.964855s-1.758029 2.275096-1.964855 3.61947a62.048071 62.048071 0 0 1-0.620481 6.928702c-1.240961 4.136538-3.30923 4.963846-7.032115 2.792163-5.894567-3.516057-7.032115-3.102404-9.514037 3.619471a67.632397 67.632397 0 0 1-4.653606 11.065239c-2.99899 5.067259-7.342355 5.067259-10.341345 0a56.256918 56.256918 0 0 1-3.722884-9.307211c0-1.240961-1.034135-2.585336-2.68875-2.585336s-1.861442 1.240961-2.378509 2.275096-2.171682 4.860432-5.3775 4.136538a7.032115 7.032115 0 0 1-4.860432-5.791153 37.022016 37.022016 0 0 1-0.827308-6.411634c0-2.585336-1.240961-3.722884-3.929711-2.275096a4.653605 4.653605 0 0 1-6.928701-1.551202c-2.481923-4.446778-5.274086-3.929711-8.479903-2.068269z" fill="#CA4508" p-id="5514"></path><path d="M413.13674 196.795799a144.054938 144.054938 0 0 1-7.962836 22.957786c-1.034135 2.378509-1.654615 3.619471 1.344375 5.3775 8.790143 5.274086 8.273076 11.789134-0.930721 16.546152a70.217734 70.217734 0 0 1-23.268027 6.618461 126.164411 126.164411 0 0 1-56.877398-4.446779 26.887497 26.887497 0 0 1-7.445769-3.826297c-5.791153-4.239952-5.99798-10.341345 0-13.650576 4.033125-2.481923 4.239952-4.446778 2.275096-8.479903a113.030903 113.030903 0 0 1-7.342355-22.337306c3.412644 0 4.343365 3.929711 7.549182 4.239952a39.090285 39.090285 0 0 0 14.891537 5.584326 134.437487 134.437487 0 0 0 56.877399 0 33.609372 33.609372 0 0 0 14.167643-5.99798 23.164613 23.164613 0 0 1 6.721874-2.585336z" fill="#88A36C" p-id="5515"></path><path d="M854.091699 554.192688c-1.654615-12.409614-2.275096-24.819228-4.963846-37.022015a19.958796 19.958796 0 0 0-1.034135-2.792164l-2.171682-10.341345a8.273076 8.273076 0 0 1 6.101394-1.447788h59.566148a21.406585 21.406585 0 0 1 4.860432 0.620481c3.722884 0 3.826298 2.481923 3.516057 5.170672a52.327207 52.327207 0 0 1-44.05413 46.536054 65.150475 65.150475 0 0 1-21.820238-0.723895z" fill="#A4D484" p-id="5516"></path><path d="M503.416683 222.028681h-14.374469c-4.757019 0-5.274086-2.068269-5.3775-5.584326l-1.240961-23.268027c0-2.171682 0-4.239952-0.723894-6.411634a7.962836 7.962836 0 0 1 6.515047-1.654615h59.359321a8.479903 8.479903 0 0 1 6.618461 1.551202c-0.723894 10.341345-1.447788 21.406585-1.964855 32.05817 0 2.378509-1.034135 3.205817-3.309231 3.102403h-15.408604c-1.551202 0-2.378509-1.034135-3.30923-1.861442a15.822258 15.822258 0 0 0-23.474854 0c-0.517067 1.034135-1.654615 2.275096-3.309231 2.068269z" fill="#F8EFDD" p-id="5517"></path><path d="M179.629166 340.33367c3.722884-5.68774 4.860432-5.791153 8.583316 0 1.861442 2.895577 3.516057 4.136538 6.721875 1.654615s4.963846-1.034135 5.067259 2.895577a56.980812 56.980812 0 0 0 0.930721 7.756009 5.170673 5.170673 0 0 0 4.136538 4.550192c2.68875 0 3.102404-2.171682 3.619471-3.929712s1.344375-3.619471 3.516057-3.722884 3.205817 1.861442 3.929711 3.826298a70.11432 70.11432 0 0 0 4.033125 10.341345c2.068269 3.929711 5.584326 3.929711 7.549182 0a115.616239 115.616239 0 0 0 5.067259-12.409614c2.792163-7.445769 4.757019-8.169663 10.858413-3.309231 2.99899 2.378509 4.757019 2.171682 5.274086-1.861442s0.620481-5.894567 0.827307-8.790143 0-2.99899 2.068269-3.619471a3.722884 3.722884 0 0 1 4.343365 1.758029 23.68168 23.68168 0 0 1 1.654615 2.481923c2.068269 3.412644 3.929711 4.446778 5.997981 0 1.034135-2.275096 2.68875-3.722884 4.343365 0a45.605332 45.605332 0 0 1-41.985862 37.435669 44.984852 44.984852 0 0 1-46.536053-35.05716z" fill="#592C22" p-id="5518"></path><path d="M771.050697 374.460109c0-1.137548 0-2.275096 0.827307-3.412644s1.654615-3.722884 4.136539-3.619471 3.412644 1.758029 4.136538 3.722885l3.929711 10.341345c0.930721 2.585336 2.481923 5.067259 5.377499 5.377499s4.446778-2.68875 5.480913-5.067259c2.275096-5.170673 4.033125-10.341345 6.308221-15.718845s5.274086-6.308221 10.341345-2.171682c1.551202 1.344375 2.895577 3.722884 5.377499 2.792163s2.171682-3.722884 2.275096-6.101393 0.517067-5.894567 0.930721-8.893557 0.930721-3.30923 2.895577-3.619471a4.653605 4.653605 0 0 1 4.446779 1.758029l0.62048 0.723894c1.654615 1.964856 2.275096 5.584326 4.860432 5.99798s2.99899-3.412644 4.550192-5.170673 2.99899-1.137548 4.550192-1.344375a53.361341 53.361341 0 0 1-20.68269 35.987882 56.463745 56.463745 0 0 1-30.196728 10.961826c-4.963846-4.136538-7.652595-10.341345-12.926682-14.06423z" fill="#E99A46" p-id="5519"></path><path d="M167.012725 514.481923a237.850939 237.850939 0 0 0-6.204807 41.985861c0 1.758029-0.517067 3.516057-0.827308 5.3775a64.529994 64.529994 0 0 1-22.957786-7.445769c-10.341345-5.584326-10.341345-13.753989 0-19.338315 4.033125-2.275096 3.722884-3.929711 2.171682-7.549182a135.471622 135.471622 0 0 1-9.617451-28.025046c3.619471 0 4.860432 3.722884 7.859422 4.446779a73.423551 73.423551 0 0 0 24.715815 8.169662c1.964856 0 3.929711 0 5.170673 2.37851z" fill="#D15711" p-id="5520"></path><path d="M916.45001 503.520097a8.790143 8.790143 0 0 1-5.791153 0.827308h-64.840234l-6.618461-21.716825c1.551202 0.620481 3.102404 1.137548 4.550191 1.861442s1.447788 0.827308 2.37851 0a19.545142 19.545142 0 0 1 26.887497-4.239952c2.585336 1.861442 4.343365 2.895577 7.238942 1.034135a4.757019 4.757019 0 0 1 5.170673 0c1.551202 3.205817-1.758029 5.791153-1.034135 9.100384 3.516057-1.861442 1.861442-7.135528 5.791153-8.479903a8.583317 8.583317 0 0 1 4.343365 2.792163c1.034135 2.895577-1.758029 4.860432-1.964855 7.756009 2.99899 0 2.378509-4.963846 5.584326-4.550192 1.447788 1.240961 3.205817 0 4.757019 0.62048s3.516057 0.723894 3.516057 2.171683c0 5.480913 4.239952 6.618461 7.342355 9.100384a7.342355 7.342355 0 0 1 2.68875 3.722884z" fill="#FEF5E3" p-id="5521"></path><path d="M549.539083 264.635023a420.065441 420.065441 0 0 0-62.771965-2.068269c0-5.584326-0.620481-11.168653-1.137548-16.752979 0-3.205817 0.517067-4.550192 3.929711-4.343365h15.822258c1.240961 0 2.171682 0 3.205817 0.930721a16.959806 16.959806 0 0 0 20.68269 0 3.722884 3.722884 0 0 1 2.68875-0.827308h15.615431c2.481923 0 3.412644 0 2.998991 3.412644-0.517067 6.411634-0.620481 12.616441-1.034135 19.648556z" fill="#F8EFDD" p-id="5522"></path><path d="M735.373056 194.72753c0-3.30923-1.447788-4.446778-4.343365-4.757019s-6.928701-0.827308-10.341345-1.034135-8.790143 0-10.341345 5.584327c-1.137548 3.619471-6.308221 3.619471-8.68673 0a7.238942 7.238942 0 0 0-9.824278-2.99899 24.405575 24.405575 0 0 1-11.168653 1.551202c-8.68673-6.411634-8.583317-12.616441 0.723894-17.993941a24.819228 24.819228 0 0 1 23.164613-3.102404 4.757019 4.757019 0 0 0 3.826298 0 19.234902 19.234902 0 0 1 17.166633 2.171683 58.945668 58.945668 0 0 0 7.445769 2.895577 11.478893 11.478893 0 0 1 6.411634 16.235911c-1.137548 1.137548-1.861442 3.412644-4.033125 1.447789z" fill="#FEF5E3" p-id="5523"></path><path d="M554.606342 186.868107h-72.389416c-2.68875 0-5.791153 0-5.274086-4.343365s0.620481-7.445769 5.99798-6.825287a11.168653 11.168653 0 0 1 7.652595-1.551202h54.705716a12.823268 12.823268 0 0 0 8.790144-2.481923c0.930721 2.068269 1.551202 3.722884 4.550192 4.653605s2.275096 5.480913 2.068269 8.37649-4.239952 1.344375-6.101394 2.171682z" fill="#D15712" p-id="5524"></path><path d="M531.441729 241.47041a17.476873 17.476873 0 0 1-26.06019 0 17.787114 17.787114 0 0 1-1.964856-19.545142c8.790143-11.582307 20.68269-11.582307 29.989902 0a18.407594 18.407594 0 0 1-1.964856 19.545142z" fill="#A6480F" p-id="5525"></path><path d="M318.823672 199.898202c-3.102404 0-3.619471-3.102404-5.894567-4.033124-1.344375-5.68774 2.068269-8.68673 6.308221-11.06524a71.148455 71.148455 0 0 1 26.990911-7.549182 140.125227 140.125227 0 0 1 46.74288 2.171683 35.987881 35.987881 0 0 1 4.653605 1.654615 11.478893 11.478893 0 0 1-6.411634 10.341345 128.439507 128.439507 0 0 0-17.063219-3.30923 102.069077 102.069077 0 0 0-21.820239 0c-6.308221 1.034135-12.719855 1.964856-19.028075 3.30923a31.024036 31.024036 0 0 0-14.477883 8.479903z" fill="#708254" p-id="5526"></path><path d="M135.988689 504.450818c-3.30923 0-4.343365-3.826298-6.928701-4.963846a9.720864 9.720864 0 0 1 4.239951-13.236922 65.770955 65.770955 0 0 1 26.887498-9.617451 79.731771 79.731771 0 0 1 19.648556-2.068269 63.702686 63.702686 0 0 1-4.550192 12.202788 8.479903 8.479903 0 0 1-5.480913 2.068269 98.449606 98.449606 0 0 0-19.855383 4.343365 19.234902 19.234902 0 0 0-13.960816 11.272066z" fill="#A7480F" p-id="5527"></path><path d="M553.572208 171.769743c0 3.929711-1.861442 4.136538-4.860433 4.136539h-66.288022c0.827308-8.479903 0.827308-8.479903 9.30721-8.479903h56.773985c3.929711-0.723894 5.377499 0.620481 5.06726 4.343364z" fill="#A6480F" p-id="5528"></path><path d="M680.3571 260.808726h48.914562c4.757019 0 6.721874 1.240961 5.99798 6.101393a35.884468 35.884468 0 0 0 0 4.963846h-48.914562c-4.860432 0-6.721874-1.240961-5.99798-6.101394a35.160574 35.160574 0 0 0 0-4.963845z" fill="#C98840" p-id="5529"></path><path d="M391.626742 190.797819l6.101394-9.824278c2.99899-3.929711 5.894567-7.962836 8.99697-11.789134a27.507978 27.507978 0 0 1 4.343365-4.136538 4.757019 4.757019 0 0 1 6.721874 0c1.964856 1.964856 0 4.033125-0.62048 5.894567-2.99899 4.963846-7.859422 8.479903-11.37548 13.133508 0 3.826298-3.929711 5.480913-5.584326 8.37649-1.240961 1.137548-2.171682 2.481923-3.309231 3.722884a6.515047 6.515047 0 0 1-2.481923 1.654615 4.653605 4.653605 0 0 1-5.480913-0.930721c-1.551202-1.758029 0-3.30923 0.620481-4.860432a2.275096 2.275096 0 0 1 2.068269-1.240961z" fill="#6B5954" p-id="5530"></path><path d="M890.182993 481.699859l-3.516057 8.790143c-0.620481 1.551202-1.447788 2.585336-3.30923 1.964856s-1.034135-2.068269-0.620481-3.205817 1.758029-5.377499 2.68875-8.06625c4.860432-13.857403 9.824278-27.714805 14.477883-41.36538 0.930721-2.792163 2.068269-3.929711 4.860432-2.895577s1.240961 3.516057 0.620481 5.170673c-5.067259 13.030095-10.134518 26.267017-15.201778 39.607352z" fill="#D45A4A" p-id="5531"></path><path d="M898.042416 487.594425a22.337306 22.337306 0 0 0-3.619471 5.791154 1.964856 1.964856 0 0 1-2.99899 0.62048c-1.240961-0.723894-0.827308-1.551202 0-2.481922l3.516057-7.135529c5.894567-11.892547 11.789134-23.68168 17.787114-35.470814 1.034135-1.964856 1.240961-5.067259 5.170672-2.895576s1.344375 3.619471 0 5.480913z" fill="#D4594A" p-id="5532"></path><path d="M399.692991 191.521713c1.137548-3.30923 4.136538-5.170673 6.101394-7.859423 7.962836 4.239952 9.514038 6.825288 7.652595 13.133509-1.861442 0.620481-2.585336 4.239952-5.584326 1.964855a28.74894 28.74894 0 0 1-8.169663-7.238941z" fill="#728354" p-id="5533"></path><path d="M777.255504 820.2755a5.68774 5.68774 0 0 0-4.136538-1.344375h-64.323167a15.098364 15.098364 0 0 0-2.481923 0c-3.929711-1.447788-4.446778-4.239952-2.792163-7.549182a16.649566 16.649566 0 0 1 10.341345-9.514038c2.585336-0.723894 3.826298-0.827308 1.964856-4.033124a6.515047 6.515047 0 0 1 4.239951-9.824278 26.784084 26.784084 0 0 1 8.790143-1.344375c2.68875 0 5.68774 0 7.135529-2.585336s-1.964856-4.033125-2.99899-6.101394a22.544132 22.544132 0 0 1 29.266006 14.477883c0 1.964856 1.654615 2.378509 2.895577 2.99899a16.029085 16.029085 0 0 1 8.273076 10.341346 14.271056 14.271056 0 0 0 3.102404 4.963845c2.275096 2.99899 3.826298 6.101394 0.723894 9.514038z" fill="#FEEED1" p-id="5534"></path><path d="M778.186225 732.167239c4.550192-4.653605 8.99697-9.307211 13.547162-13.960816A224.510604 224.510604 0 0 0 826.170067 672.187437a6.721874 6.721874 0 0 1 7.859422 2.99899c2.481923 2.68875 6.411634 2.68875 9.100384 5.170673 0 2.378509-2.275096 1.964856-3.722885 2.378509-3.516057 1.034135-7.135528 1.551202-10.341345 2.895577a17.993941 17.993941 0 0 0-12.616441 14.891537 12.926681 12.926681 0 0 0 14.271057 15.925671c10.961826-0.723894 20.68269-4.653605 21.509998-18.304181 0-2.68875 0-6.204807 3.102403-7.962836a85.729752 85.729752 0 0 0 5.584326 6.928702 18.200768 18.200768 0 0 1-8.169662 29.162593 128.23268 128.23268 0 0 1-29.266007 6.928701 144.778833 144.778833 0 0 1-19.648556 1.447789 81.593213 81.593213 0 0 1-25.646536-2.481923z" fill="#CD8852" p-id="5535"></path><path d="M855.229247 690.181377a33.712785 33.712785 0 0 0-2.068269 9.617452 19.338315 19.338315 0 0 1-17.476874 17.476873 17.37346 17.37346 0 0 1-17.99394-4.653605 18.821248 18.821248 0 0 1 10.341345-27.921632c4.757019-1.654615 9.824278-2.68875 14.68471-4.033125a25.853363 25.853363 0 0 0 14.477883-9.410624c-0.930721-1.654615-1.551202-3.30923 0-4.963846s1.964856-5.584326 5.3775-5.480913a13.547162 13.547162 0 0 1 11.68572 5.3775 6.204807 6.204807 0 0 1-0.620481 7.342355 4.239952 4.239952 0 0 1-2.99899 2.378509c-9.100384 0.723894-11.68572 8.169663-15.408604 14.271056z" fill="#AC6726" p-id="5536"></path><path d="M834.029489 675.186427l-7.859422-2.99899v-0.930721c2.378509-1.654615 2.68875-4.757019 4.653605-6.721875a20.68269 20.68269 0 0 0 6.308221-12.616441 3.30923 3.30923 0 0 1 1.964855-2.688749 16.029085 16.029085 0 0 1 13.857403 5.170672c2.792163 3.412644 1.240961 10.341345-2.792164 10.341345-7.859422 0.413654-11.478893 6.515047-16.132498 10.444759z" fill="#AD6726" p-id="5537"></path><path d="M856.987275 666.29287v4.963846c-1.654615 0-2.99899-0.723894-2.895576-2.68875s1.447788-2.171682 2.895576-2.275096z" fill="#FEC247" p-id="5538"></path><path d="M341.574631 808.176126c2.68875 2.99899 5.377499 0 8.06625 0h1.447788c11.582307 0 15.408604 3.102404 14.891537 14.271056 0 6.928701-0.930721 13.857403-1.240961 20.682691 0 1.758029 0 3.722884-1.964856 4.860432s-4.343365 1.758029-4.136538-2.275096-3.412644-2.99899-5.3775-3.516057-2.481923 1.758029-2.688749 3.412644-0.620481 3.516057-0.930721 5.274086a9.100384 9.100384 0 0 1-5.274086 1.034134 7.445769 7.445769 0 0 0-8.790144 6.101394 6.308221 6.308221 0 0 1-7.859422 1.034134c1.240961-4.136538 0.723894-6.204807-4.653605-6.515047a76.008887 76.008887 0 0 1-22.233893-4.136538c-1.447788-0.517067-3.826298 0-3.61947-2.68875s2.275096-2.481923 3.826297-2.68875a128.439507 128.439507 0 0 1 20.682691-2.171682 7.342355 7.342355 0 0 0 7.342355-2.895577h-18.717835c-7.859422 0-15.615431 0-23.474854 1.034135a65.977782 65.977782 0 0 0-26.887497 5.894566c-0.723894-8.583317-1.137548-17.270046-2.171683-25.749949a6.618461 6.618461 0 0 1 5.894567-8.37649 149.432438 149.432438 0 0 1 35.677641-3.826297 294.21127 294.21127 0 0 1 42.192688 1.240961z" fill="#EBEDED" p-id="5539"></path><path d="M199.794789 693.283781a69.287013 69.287013 0 0 0 10.961826 15.098364 258.53363 258.53363 0 0 0 32.988891 32.782064 186.144213 186.144213 0 0 1-41.365381 3.102404 68.666532 68.666532 0 0 1-35.160573-10.341345 20.68269 20.68269 0 0 1-9.720865-17.890528 35.574227 35.574227 0 0 1 29.989901-39.400525c2.895577 4.446778 5.791153 8.893557 8.68673 13.443749a9.617451 9.617451 0 0 0 3.619471 3.205817z" fill="#CD8852" p-id="5540"></path><path d="M344.780448 797.007473c0 1.137548 0 2.378509-1.034134 3.102404-5.274086-2.585336-11.478893-3.516057-14.994951-8.996971l16.132499 5.997981z" fill="#D2BA9C" p-id="5541"></path><path d="M175.906282 652.332054l2.792163 5.99798c-5.377499-0.517067-5.791153-1.344375-2.792163-5.99798zM171.97657 642.300949a8.169663 8.169663 0 0 1 1.758029 4.963846c-1.344375 0-3.205817 0.620481-3.722884-1.447788a2.895577 2.895577 0 0 1 1.964855-3.516058z" fill="#FEC247" p-id="5542"></path><path d="M327.820642 859.158958l7.859423-1.034135a48.500909 48.500909 0 0 0-1.654616 6.721875c-0.620481 5.99798-4.653605 7.032115-10.341345 7.032114a59.152494 59.152494 0 0 1 4.136538-12.719854z" fill="#E26963" p-id="5543"></path><path d="M317.686124 893.595637c1.034135-3.929711 2.068269-6.721874 2.585336-9.617451 0.827308-4.860432 4.757019-4.136538 7.962836-4.860432 1.240961 0 1.654615 0.620481 1.344375 1.861442a47.880428 47.880428 0 0 1-2.895577 9.410624c-1.758029 2.895577-5.480913 1.344375-8.99697 3.205817z" fill="#E26962" p-id="5544"></path><path d="M362.774389 848.093718c0.723894-10.341345 1.551202-21.716825 2.275096-32.471823 0-3.205817-2.481923-3.619471-4.550192-4.343365s-7.238942-2.068269-10.858412-2.998991c2.99899-8.169663 2.99899-8.066249 11.582306-5.377499a251.811755 251.811755 0 0 0 32.575238 8.68673 38.986871 38.986871 0 0 1 5.687739 1.861442 486.973945 486.973945 0 0 0-34.643506 46.949707l-3.205817 4.963846z" fill="#FEB047" p-id="5545"></path><path d="M751.402141 567.843264a164.013735 164.013735 0 0 1 6.928701 51.706726 147.260755 147.260755 0 0 1-29.886487 82.110281 230.09493 230.09493 0 0 1-106.722683 77.353262 321.305595 321.305595 0 0 1-132.576045 19.958796 311.998384 311.998384 0 0 1-121.821046-31.024036c-4.136538-1.964856-5.480913-4.033125-3.722884-8.376489 0.620481-1.551202 2.481923-4.757019 0-5.067259s-6.928701-1.034135-7.859423 3.102403-2.68875 2.792163-5.067259 1.447788a215.41022 215.41022 0 0 1-60.80711-51.706725 10.341345 10.341345 0 0 0-1.447788-1.344375 181.283781 181.283781 0 0 1-23.785094-42.399516 146.330034 146.330034 0 0 1 7.859423-119.54595 228.543729 228.543729 0 0 1 90.79701-95.450616 259.671178 259.671178 0 0 1 91.210665-34.540093c88.418501-14.994951 167.943446 4.963846 236.403151 64.012927a196.485558 196.485558 0 0 1 59.566148 87.591193 12.513028 12.513028 0 0 0 0.930721 2.171683z" fill="#F9E7DA" p-id="5546"></path><path d="M135.988689 504.450818a9.203797 9.203797 0 0 1 5.894567-9.410624 79.524944 79.524944 0 0 1 26.577257-7.549182l6.411634-0.723894-7.962836 27.714805a150.259746 150.259746 0 0 1-25.956776-6.825288 12.719855 12.719855 0 0 1-4.963846-3.205817z" fill="#F8B03A" p-id="5547"></path><path d="M344.780448 797.110887c2.895577-8.790143 3.412644-9.307211 10.341346-8.583317-1.447788 7.032115-1.447788 7.032115-10.341346 8.479903zM359.258332 767.224399c0.723894 0 1.861442-0.517067 2.068269 1.137548 0 3.619471-3.826298 7.549182-8.273076 7.652596-0.930721 0-1.758029 0-1.758029-1.447789a7.549182 7.549182 0 0 1 7.962836-7.342355z" fill="#FDF8F7" p-id="5548"></path><path d="M807.245405 344.263381a18.097354 18.097354 0 1 1-17.6837-18.407594 18.304181 18.304181 0 0 1 17.6837 18.407594z" fill="#FEC447" p-id="5549"></path><path d="M758.227429 333.922036c-2.068269-0.930721-5.584326 1.034135-5.584327-1.758029s3.516057-1.447788 5.3775-1.447788 5.791153-1.447788 5.791153 1.240961-3.929711 0.620481-5.584326 1.964856z" fill="#DA9143" p-id="5550"></path><path d="M786.976368 319.65098c-1.758029-1.034135-5.170673 1.447788-5.170672-1.861443s3.30923-0.930721 5.067259-1.344374c1.964856 0 5.584326-1.137548 5.480913 1.344374s-3.412644 1.137548-5.3775 1.861443z" fill="#8FB275" p-id="5551"></path><path d="M815.001414 336.921026a3.516057 3.516057 0 0 1-0.827308-0.723894 1.137548 1.137548 0 0 1 0-1.654615l6.515048-5.997981c0.620481-0.620481 1.447788-0.930721 2.171682 0a1.758029 1.758029 0 0 1 0 1.240962 30.093314 30.093314 0 0 1-7.859422 7.135528z" fill="#90B376" p-id="5552"></path><path d="M762.984448 316.238336a4.860432 4.860432 0 0 1-1.034135 1.240961l-7.135528 4.446779a1.344375 1.344375 0 0 1-2.171683 0V320.581701c2.895577-1.861442 5.894567-3.722884 8.893557-5.480913 0.517067-0.620481 1.240961 0 1.447789 1.137548z" fill="#ECA53A" p-id="5553"></path><path d="M775.083821 311.688144c-1.758029 0-2.378509-1.861442-2.895576-3.102404s-5.274086-5.170673-2.99899-6.618461 3.205817 3.30923 5.170672 5.067259a9.203797 9.203797 0 0 1 1.861442 2.895577c0 0.930721-0.620481 1.447788-1.137548 1.758029z" fill="#DE7D57" p-id="5554"></path><path d="M810.140982 322.546556c0 0.827308 0 1.758029-1.034135 1.964856s-1.447788-0.723894-1.758029-1.447788q-1.137548-3.826298-2.068269-7.652596c0-1.034135 0-2.068269 1.137548-2.275096s1.447788 0 1.654616 1.344375z" fill="#E8A13A" p-id="5555"></path><path d="M822.757423 311.481317c-2.068269 2.68875-4.136538 5.68774-6.515048 8.37649-0.827308 0.827308-2.171682 0-1.758028-1.240962a28.955767 28.955767 0 0 1 6.30822-8.583316c0.723894-0.723894 1.551202 0.206827 1.964856 1.447788z" fill="#E07E58" p-id="5556"></path><path d="M795.042618 305.173096c0 1.137548-0.827308 1.551202-1.447789 1.447789l-9.100383-2.37851a1.344375 1.344375 0 0 1-1.034135-1.447788 1.137548 1.137548 0 0 1 1.447788-1.034135l9.100384 2.275096c0.723894 0.103413 1.137548 0.723894 1.034135 1.137548z" fill="#DF9343" p-id="5557"></path><path d="M749.023632 345.297516a1.137548 1.137548 0 0 1-1.551202-0.827308 1.240961 1.240961 0 0 1 0.723894-1.654615l8.893557-2.99899a1.344375 1.344375 0 0 1 1.551202 0.930721 1.137548 1.137548 0 0 1-0.827308 1.551202z" fill="#E37E59" p-id="5558"></path><path d="M736.200364 228.130075v-10.341345c0-1.654615-0.827308-4.136538 2.068269-4.136539s4.653605 0.827308 4.757018 3.412644v21.923652c0 2.378509-2.171682 3.619471-4.653605 3.412644s-2.068269-2.481923-2.171682-4.136538v-10.134518z" fill="#FEC547" p-id="5559"></path><path d="M837.131893 651.9184a10.341345 10.341345 0 0 1-5.997981 12.306201z" fill="#FAB84E" p-id="5560"></path><path d="M223.683296 344.780448a14.581297 14.581297 0 0 1-15.305191-14.788123 15.098364 15.098364 0 0 1 15.512018-15.305191 15.512018 15.512018 0 0 1 14.994951 15.305191 14.891537 14.891537 0 0 1-15.201778 14.788123z" fill="#FEC447" p-id="5561"></path><path d="M238.368006 303.311654c1.551202 0.517067 1.654615 2.068269 1.758029 3.205817s2.99899 5.791153 0.517067 6.411634-1.551202-3.619471-2.792163-5.480913a6.411634 6.411634 0 0 1-0.723894-2.792163c0.206827-0.723894 0.206827-1.137548 1.240961-1.344375z" fill="#EEA036" p-id="5562"></path><path d="M193.383155 311.377903s-0.827308 0-1.034135-0.517067a1.344375 1.344375 0 0 1 0.620481-1.964855c2.68875-1.034135 4.446778-3.929711 7.756009-3.722885l0.620481 1.137548-7.238942 4.757019z" fill="#F0A237" p-id="5563"></path><path d="M187.592002 329.992325a14.581297 14.581297 0 0 1 7.756009-3.516058c0.930721 0 1.758029 0 2.068269 0.723895s0 1.447788-1.344375 1.551201c-2.481923 0.413654-4.860432 2.68875-8.479903 1.240962z" fill="#E3775A" p-id="5564"></path><path d="M206.309836 293.280549a14.477883 14.477883 0 0 1 5.170673 8.273077 1.447788 1.447788 0 0 1-1.034135 0.723894 23.164613 23.164613 0 0 1-5.067259-8.273076s0.930721-0.517067 0.930721-0.723895z" fill="#E3755A" p-id="5565"></path><path d="M216.651182 294.935165a13.443749 13.443749 0 0 1 10.341345 0.723894c0.827308 0 1.758029 0 1.344375 1.551202s-1.137548 1.034135-1.964856 0.723894z" fill="#E38C3B" p-id="5566"></path><path d="M251.604928 300.209251c0 4.343365-3.30923 5.99798-4.653605 8.68673h-1.137548a1.344375 1.344375 0 0 1 0-1.240962 17.37346 17.37346 0 0 1 5.791153-7.445768z" fill="#E57A5C" p-id="5567"></path><path d="M244.15916 324.097758a20.68269 20.68269 0 0 1 6.515047-7.445769 1.137548 1.137548 0 0 1 1.758029 0 1.034135 1.034135 0 0 1 0 1.654616c-2.68875 1.344375-4.136538 4.446778-8.273076 5.791153z" fill="#84B67E" p-id="5568"></path><path d="M192.452434 319.65098a10.858412 10.858412 0 0 1 8.893557 0 10.961826 10.961826 0 0 1-8.893557 0z" fill="#E69543" p-id="5569"></path><path d="M217.271662 307.96526a12.719855 12.719855 0 0 1 10.341345 0 15.822258 15.822258 0 0 1-10.341345 0z" fill="#81B982" p-id="5570"></path><path d="M399.692991 191.521713c3.205817 1.964856 6.825288 3.30923 8.273076 7.238941 0 3.205817-3.205817 3.722884-5.377499 4.550192a116.340133 116.340133 0 0 1-51.706726 5.894567 105.171481 105.171481 0 0 1-26.680671-5.274086 8.99697 8.99697 0 0 1-5.377499-4.033125c1.654615-5.99798 6.825288-7.859422 11.892547-9.410624a75.078166 75.078166 0 0 1 20.68269-3.516057 114.788932 114.788932 0 0 1 23.0612 0l15.718845 2.068269c1.034135 0 1.137548 0.930721 1.137548 1.861442l-1.137548 1.034135c-2.171682 1.654615-4.446778 0-6.721875 0a63.8061 63.8061 0 0 0-26.577257 1.344374c-2.68875 0.723894-6.204807 1.344375-6.101393 4.757019s3.412644 3.826298 5.894566 4.446779a64.219754 64.219754 0 0 0 33.402545 0c3.826298-1.034135 6.618461-2.99899 6.204807-7.652596 1.034135-1.447788 1.447788-3.102404 3.412644-3.30923z" fill="#F8B03A" p-id="5571"></path><path d="M326.166027 229.47445c18.200768 14.994951 57.911533 14.167643 74.147445 0 1.137548 2.895577 0 4.653605-2.378509 6.204807a42.399515 42.399515 0 0 1-22.544133 6.825288 100.621289 100.621289 0 0 1-37.435669-2.68875 33.609372 33.609372 0 0 1-9.720865-4.860432 4.550192 4.550192 0 0 1-2.068269-5.480913z" fill="#718355" p-id="5572"></path><path d="M868.155928 491.730963c0 3.412644-2.275096 4.653605-4.757019 4.446779a3.929711 3.929711 0 0 1-3.722884-4.550192 4.239952 4.239952 0 0 1 8.479903 0z" fill="#CEB887" p-id="5573"></path><path d="M849.64492 491.524137a2.171682 2.171682 0 0 1 2.585337 2.171682c0 1.654615 0 2.895577-2.37851 2.895577s-2.585336 0-2.68875-2.068269a2.585336 2.585336 0 0 1 2.481923-2.99899z" fill="#CEB786" p-id="5574"></path><path d="M374.666936 186.868107h-22.957786a57.497879 57.497879 0 0 1 22.957786 0zM396.590588 194.72753c2.378509 3.929711 1.861442 5.894567-2.585337 7.859422a36.298122 36.298122 0 0 1-11.478893 2.792163 58.11836 58.11836 0 0 1-29.266007-2.792163c-2.068269-0.930721-4.446778-1.964856-4.343365-4.860432s2.481923-3.929711 4.550192-4.653605a60.186629 60.186629 0 0 1 34.643507-1.551202h2.481923c0 1.551202-2.895577 2.68875-0.930722 4.239951s4.860432 0.930721 6.928702-1.034134z" fill="#E3A541" p-id="5575"></path><path d="M731.650172 799.179156c2.792163 0.517067 4.446778 1.861442 4.446778 4.343365a3.619471 3.619471 0 0 1-4.239951 3.722884c-2.378509 0-3.516057-1.344375-3.516058-3.722884a4.136538 4.136538 0 0 1 3.309231-4.343365z" fill="#95BC7C" p-id="5576"></path><path d="M764.225409 805.694203a2.585336 2.585336 0 0 1-2.792163 2.481923 2.792163 2.792163 0 0 1-2.792163-2.895577 2.481923 2.481923 0 0 1 2.895576-2.585336 2.585336 2.585336 0 0 1 2.68875 2.99899z" fill="#90AD73" p-id="5577"></path><path d="M745.197334 791.629974a2.895577 2.895577 0 0 1-3.205817 2.688749c-1.447788 0-2.585336-0.723894-2.585336-2.378509a2.585336 2.585336 0 0 1 2.792163-2.792163 2.792163 2.792163 0 0 1 2.99899 2.481923z" fill="#F9B23F" p-id="5578"></path><path d="M720.274692 809.313674a2.68875 2.68875 0 0 1-2.895577 2.895577c-1.551202 0-2.68875-0.723894-2.688749-2.275096a2.812846 2.812846 0 0 1 5.584326-0.620481z" fill="#E98364" p-id="5579"></path><path d="M335.886892 830.410018c1.551202-11.789134 1.861442-12.202787 11.065239-13.857402-0.827308 11.789134-1.551202 12.616441-11.065239 13.857402z" fill="#DE524B" p-id="5580"></path><path d="M330.405979 850.782468c1.964856-11.68572 1.964856-11.68572 10.341345-13.340335 0 10.651586-2.378509 13.650576-10.341345 13.340335z" fill="#DE514B" p-id="5581"></path><path d="M208.998586 714.483539a4.860432 4.860432 0 0 1 3.722884 4.963845 4.860432 4.860432 0 0 1-5.067259 4.550192 4.446778 4.446778 0 0 1-4.653605-4.860432c0.103413-2.895577 2.275096-4.446778 5.99798-4.653605z" fill="#B26E32" p-id="5582"></path><path d="M511.482933 732.063825h-0.620481s0-0.517067 0 0a32.36841 32.36841 0 0 0 5.170673-16.132498 48.604322 48.604322 0 0 0-7.962836-34.850333 17.6837 17.6837 0 0 1 13.236922-6.721875 40.124419 40.124419 0 0 1 26.473843 4.033125 31.024036 31.024036 0 0 1 16.235912 31.644516 32.05817 32.05817 0 0 1-24.198747 25.74995 37.43567 37.43567 0 0 1-28.335286-3.722885z" fill="#E97D34" p-id="5583"></path><path d="M627.926479 664.534841a48.087255 48.087255 0 0 1-36.815188-15.822258 38.986871 38.986871 0 0 1 5.894566-57.911533 51.706726 51.706726 0 0 1 65.667542 2.792163 40.227833 40.227833 0 0 1-15.718844 67.322158 49.328217 49.328217 0 0 1-19.028076 3.61947z" fill="#311E1E" p-id="5584"></path><path d="M511.482933 732.063825c5.584326 0.620481 10.341345 3.205817 16.339325 3.516058a34.540093 34.540093 0 0 0 34.126439-21.509998 31.024036 31.024036 0 0 0-27.094324-39.814179 37.642496 37.642496 0 0 0-26.473844 6.204807c-2.275096-2.378509 0-2.68875 1.551202-3.30923a37.539083 37.539083 0 0 1 52.947687 14.788123 5.067259 5.067259 0 0 0 5.584327 3.516058h26.473843c2.068269 0 3.722884 0 4.757019-2.37851s4.033125-7.445769 9.203797-6.928701a8.583317 8.583317 0 0 1 7.445769 5.791153 10.341345 10.341345 0 0 1-3.722884 11.582307l-1.964856 1.654615 4.239952 2.171683a7.238942 7.238942 0 0 1 4.343365 8.169662 7.652595 7.652595 0 0 1-7.342356 5.791153 11.99596 11.99596 0 0 1-11.582306-4.446778 8.169663 8.169663 0 0 0-7.342355-3.102403h-23.991921a5.68774 5.68774 0 0 0-6.308221 3.929711 37.43567 37.43567 0 0 1-49.017976 16.856392c-0.930721-0.723894-1.964856-1.240961-2.171682-2.481923z" fill="#311D1D" p-id="5585"></path><path d="M388.731165 664.534841a48.500909 48.500909 0 0 1-36.918602-15.718844 38.883458 38.883458 0 0 1 2.481923-55.42961 51.706726 51.706726 0 0 1 69.080186 0 39.917592 39.917592 0 0 1-11.582307 65.564128 49.535043 49.535043 0 0 1-23.0612 5.584326z" fill="#321F1F" p-id="5586"></path><path d="M695.145223 693.283781a18.614421 18.614421 0 0 1-12.202787-3.30923 7.859422 7.859422 0 0 1 0-13.340336 25.129469 25.129469 0 0 1 25.853363 0 7.652595 7.652595 0 0 1-0.620481 13.443749 21.923652 21.923652 0 0 1-13.030095 3.205817zM331.3367 700.212482a19.648556 19.648556 0 0 1-13.443749-4.343365 6.618461 6.618461 0 0 1 0-11.065239 21.923652 21.923652 0 0 1 26.990911 0.930721 6.825288 6.825288 0 0 1-0.827308 10.341345 23.888507 23.888507 0 0 1-12.719854 4.136538z" fill="#F090AF" p-id="5587"></path><path d="M511.276106 731.443345a111.893355 111.893355 0 0 1-17.890527 31.024035c-1.344375-3.102404 0.827308-4.343365 1.758028-5.68774a110.85922 110.85922 0 0 0 14.37447-26.060189 51.706726 51.706726 0 0 0-22.854373-66.18461c-4.033125-2.585336-8.273076-4.757019-12.409614-7.032114a1.447788 1.447788 0 0 1 2.171683-0.930721c20.68269 10.341345 36.401535 23.785094 39.193698 48.087255a66.288023 66.288023 0 0 1-4.343365 26.784084z" fill="#332020" p-id="5588"></path><path d="M359.154918 747.162189a50.879418 50.879418 0 0 0 2.171683-8.066249c0-5.274086 4.757019-4.860432 8.066249-5.584326s1.344375 1.447788 1.137548 2.378509a42.709756 42.709756 0 0 1-2.378509 8.066249c-1.861442 3.826298-5.480913 2.585336-8.996971 3.205817z" fill="#DD504A" p-id="5589"></path><path d="M364.946072 726.789739a59.876389 59.876389 0 0 1 2.068269-7.756008c0.620481-1.551202 0-4.653605 3.102403-4.033125s5.377499 0 5.170673 2.585336 0 6.308221-3.309231 7.549182a57.084225 57.084225 0 0 1-7.032114 1.654615z" fill="#DD514A" p-id="5590"></path><path d="M462.25813 694.214502c0-4.446778 1.447788-6.928701 5.377499-7.238942a5.170673 5.170673 0 0 1 5.894567 5.894567 5.68774 5.68774 0 0 1-5.791153 6.308221 4.860432 4.860432 0 0 1-5.480913-4.963846z" fill="#674C42" p-id="5591"></path><path d="M432.268229 713.863058a8.169663 8.169663 0 0 1 8.893556-5.3775 7.962836 7.962836 0 0 1 7.445769 6.825288 9.410624 9.410624 0 0 1-4.446778 11.272067 1.034135 1.034135 0 0 1-0.723895-1.034135c0-1.551202 1.447788-2.585336 2.171683-3.929711a6.825288 6.825288 0 0 0-1.447788-8.99697 5.68774 5.68774 0 0 0-8.06625 0 6.411634 6.411634 0 0 1-2.585336 1.447788 1.034135 1.034135 0 0 1-1.240961-0.206827z" fill="#6A4A3B" p-id="5592"></path><path d="M588.422541 747.265603c-3.205817-0.827308-2.895577-3.102404-1.964856-5.274086a3.619471 3.619471 0 0 1 4.963846-1.758029 3.516057 3.516057 0 0 1 1.861442 4.963846c-0.723894 2.068269-2.171682 4.136538-4.963846 2.068269a7.445769 7.445769 0 0 0 2.171683-4.136538c-2.275096 0.517067-1.551202 3.102404-2.068269 4.136538z" fill="#533730" p-id="5593"></path><path d="M435.267219 726.582913c-4.757019-3.619471-5.377499-6.308221-2.99899-12.719855l0.723894 0.620481a54.498889 54.498889 0 0 0 2.99899 10.961826 1.137548 1.137548 0 0 1-0.723894 1.137548z" fill="#6A4A3B" p-id="5594"></path><path d="M444.160776 726.582913a6.825288 6.825288 0 0 1-8.68673 0l0.62048-0.723895a7.032115 7.032115 0 0 1 7.549182 0z" fill="#6A4A3B" p-id="5595"></path><path d="M624.513836 662.466572a44.984852 44.984852 0 0 1-31.851344-15.30519 36.608362 36.608362 0 0 1 1.964856-51.706726 49.43163 49.43163 0 0 1 66.908503 0 37.43567 37.43567 0 0 1-9.100383 60.910523 53.671581 53.671581 0 0 1-27.921632 6.101393z" fill="#FEFEFE" p-id="5596"></path><path d="M601.659463 705.900222a73.940618 73.940618 0 0 1 10.961826 2.481923c2.481923 1.344375 5.377499 2.792163 4.653605 6.204807s-4.033125 4.446778-7.342355 4.550192a9.410624 9.410624 0 0 1-7.756009-3.826298 10.341345 10.341345 0 0 0-9.100384-3.722884h-23.888507c-3.205817 0-4.033125-0.930721-3.722884-4.033125s-1.034135-7.756009 0.62048-9.514037 6.928701-0.723894 10.341345-0.827308h19.441729a5.067259 5.067259 0 0 0 5.480913-3.516057c2.68875-5.99798 5.791153-7.238942 9.720865-4.860432a5.99798 5.99798 0 0 1 3.516057 6.515047 10.961826 10.961826 0 0 1-6.721874 7.962836c-1.861442 1.240961-4.343365 0.103413-6.204807 2.585336z" fill="#E7E7E8" p-id="5597"></path><path d="M384.698041 662.466572a44.260957 44.260957 0 0 1-33.609372-18.097354 36.504948 36.504948 0 0 1 4.963846-49.535043 49.535043 49.535043 0 0 1 66.288022 0.620481 37.539083 37.539083 0 0 1-9.720864 61.11735 53.154514 53.154514 0 0 1-27.921632 5.894566z" fill="#FEFEFE" p-id="5598"></path><path d="M467.739043 688.319935a4.136538 4.136538 0 0 1 4.239951 4.653606 4.446778 4.446778 0 0 1-4.653605 4.860432 3.929711 3.929711 0 0 1-3.722884-4.343365 4.446778 4.446778 0 0 1 4.136538-5.170673z" fill="#E67C33" p-id="5599"></path><path d="M443.333468 725.859018a16.649566 16.649566 0 0 1-7.549182 0 10.341345 10.341345 0 0 1-2.895577-11.375479c4.550192-4.860432 8.37649-5.791153 11.789134-2.792164s3.722884 8.893557-1.344375 14.167643z" fill="#E87D34" p-id="5600"></path><path d="M588.422541 747.265603a13.960816 13.960816 0 0 1-0.723894-1.758029c0-1.758029 0-3.412644 1.551202-4.136538a2.068269 2.068269 0 0 1 2.895576 1.240962c0.723894 1.964856 0 3.205817-1.861442 4.033124a10.341345 10.341345 0 0 1-1.861442 0.517067z" fill="#E57B33" p-id="5601"></path><path d="M628.133306 611.1735a11.065239 11.065239 0 0 1 11.272067 11.37548 11.272066 11.272066 0 0 1-22.544133 0 11.168653 11.168653 0 0 1 11.272066-11.37548zM377.562513 622.54898a10.341345 10.341345 0 0 1 11.168652-11.37548 10.961826 10.961826 0 0 1 11.168653 11.478893 11.168653 11.168653 0 0 1-11.065239 11.168653 10.961826 10.961826 0 0 1-11.272066-11.272066z" fill="#2C1919" p-id="5602"></path></svg>