<?xml version="1.0" standalone="no"?><!DOCTYPE svg PUBLIC "-//W3C//DTD SVG 1.1//EN" "http://www.w3.org/Graphics/SVG/1.1/DTD/svg11.dtd"><svg t="1607085352933" class="icon" viewBox="0 0 1024 1024" version="1.1" xmlns="http://www.w3.org/2000/svg" p-id="17547" xmlns:xlink="http://www.w3.org/1999/xlink" width="64" height="64"><defs><style type="text/css"></style></defs><path d="M512 512m-508 0a508 508 0 1 0 1016 0 508 508 0 1 0-1016 0Z" fill="#6DB8E0" p-id="17548"></path><path d="M123.2 565.2a388.8 204 0 1 0 777.6 0 388.8 204 0 1 0-777.6 0Z" fill="#E7E8E9" p-id="17549"></path><path d="M136.4 562a375.6 194.4 0 1 0 751.2 0 375.6 194.4 0 1 0-751.2 0Z" fill="#FFCA0D" p-id="17550"></path><path d="M148 562a364 188.4 0 1 0 728 0 364 188.4 0 1 0-728 0Z" fill="#E7E8E9" p-id="17551"></path><path d="M195.6 539.2a316.4 163.6 0 1 0 632.8 0 316.4 163.6 0 1 0-632.8 0Z" fill="#BBC2C6" p-id="17552"></path><path d="M236.4 576.4c9.6 13.6 22.4 24.8 36 34.4 54.8 40 124.8 58 192 50.4 2-0.4 4-0.4 5.2-1.6 1.6-1.6 2-4 2.4-6 1.6-16 1.2-32-1.2-48-1.2-7.6-2.8-15.6-2.4-23.2 0.8-12 6.4-22.8 7.2-34.8v-2.4c-5.6-12.4-23.2-17.2-36-11.6-13.6 6.4-21.2 21.2-24 35.6-2.8 14.8-1.2 29.6-0.8 44.8 0 11.6-1.2 24.4-8.8 33.2-7.6 8.8-23.6 11.6-30.4 2.4-4-5.6-4-12.8-4-19.6 0.8-31.2 2-62 2.8-93.2 0.4-12.8 0.8-26.4-5.6-37.6-6-11.2-20.8-18.8-32-12.4-6.8 4-10 11.2-14.8 17.6-4.4 6-12.4 11.6-19.6 8.4-15.2-6.4-0.4-35.6-14-44.8-6.8-4.4-16.4-0.4-21.6 5.6-5.2 6-8.4 14-13.6 20.4-5.2 6.4-14.8 10.4-21.6 6.4-8-4.8-7.2-16.4-5.2-25.6 4.8-24.8 9.6-50 14.4-74.8 2-9.6 0-19.2-4-28.4-14.8 31.2-22 60.4-28.4 95.2-2.8 15.2-3.6 31.2-2.4 46.8 3.2 8.8 6.8 17.6 10.4 26.4 6 12.8 12 25.2 20 36.4z" fill="#A05625" p-id="17553"></path><path d="M800 383.2c-6 24.8-8.4 50.4-6.8 75.6 0.8 14 2.8 28.4 1.6 42.4-0.4 6-4.4 14-10.4 12.4-2.4-0.8-4-2.8-5.2-4.8-5.2-10.4-4.4-25.6-15.2-30.4-8-3.2-17.2 2.4-21.2 10-4.4 7.6-5.2 16.4-7.6 24.4-2.8 8-8 16.4-16.4 18-10.8 2-20-6.8-30.4-10.4-16.4-5.6-35.6 4.4-44.4 19.6-9.2 14.8-10.8 33.2-10.4 50.8 0 8.8 0.8 18-2.4 26-3.2 8.4-10.8 15.6-19.6 14.8-12-0.8-18-14.8-19.6-26.4-2-14-1.2-28.8-6.4-42.4-5.2-13.2-18.4-25.2-32.4-22.4-10 2.4-16.8 11.2-24 18.4-6.8 7.2-15.2 13.6-25.2 15.6-10 1.6-21.2-2.8-24.8-12.4-1.6-4.8-1.6-10-2.8-14.8-0.4-0.8-0.4-1.6-0.8-2.4v2.4c-0.8 12-6.8 22.8-7.2 34.8-0.4 8 1.2 15.6 2.4 23.2 2.4 15.6 2.8 32 1.2 48-0.4 2.4-0.4 4.8-2.4 6-1.2 1.2-3.2 1.6-5.2 1.6-67.2 8-137.2-10.4-192-50.4-13.6-9.6-26-20.8-36-34.4-8-11.2-14-24-19.6-36.8-3.6-8.8-7.2-17.6-10.4-26.4 2 22.4 8.8 44.4 21.6 63.2 10 14.4 23.2 26.4 37.2 36.4 43.6 31.6 96.4 49.2 150 57.6 53.6 8.4 108.4 8.4 162.4 7.6 10.8 0 22-0.4 32.4-2 11.6-2 22.8-6 34-9.6 23.6-8.4 47.2-16.4 70-26.4 24.4-10.8 48.4-24.4 66.4-43.6-21.2 12.8-42.8 24.8-65.2 35.2-46 21.2-96 35.6-146.8 34.4-11.6-0.4-23.2-1.2-34.4-2.8-5.2-0.8-10.4-1.6-14.8-4.4-8.8-6.4-9.6-18.8-10-29.6 0-14 0-28.4 4-41.6 1.6-5.2 4-10.4 7.6-14.4 9.6-9.6 26.4-8.8 36.8-0.4 10.8 8 16 21.6 17.6 35.2 1.2 9.6 1.2 19.6 6.8 27.2 8 11.2 24.8 12 37.6 7.2 24-8.8 41.2-33.6 41.2-59.2 0-7.6-1.6-15.6 0-23.2 1.2-7.6 6.4-15.6 14.4-16.4 5.2-0.8 10.4 2 15.2 4.4 8.4 4 18 6.8 27.2 6 9.2-0.8 18.8-6 22.8-14.4 2.4-5.2 2.8-11.2 5.2-16 2.4-5.2 8.8-9.2 13.6-6 2.4 1.6 3.6 4.4 4.8 7.2 1.6 4 3.6 8 6.8 10.8 9.6 8.8 26.4 3.6 33.6-7.2 7.2-10.8 8-24.4 8.4-37.6 0.4-10.8 0.4-21.2 0.8-32 0-1.2 0-2.4 0.4-3.6-1.6-24-6-48.8-14-71.6z" fill="#BF792A" p-id="17554"></path><path d="M814 490.4c-0.4 12.8-0.8 26.8-8.4 37.6-7.2 10.8-24 16-33.6 7.2-3.2-2.8-5.2-6.8-6.8-10.8-1.2-2.8-2.4-5.6-4.8-7.2-4.8-2.8-11.2 1.2-13.6 6-2.4 5.2-2.8 10.8-5.2 16-4 8.4-13.2 13.6-22.8 14.4-9.2 0.8-18.8-2-27.2-6-4.8-2.4-10-5.2-15.2-4.4-7.6 0.8-12.8 8.8-14.4 16.4-1.2 7.6 0 15.6 0 23.2 0 25.6-17.2 50.4-41.2 59.2-12.8 4.8-29.6 4-37.6-7.2-5.6-7.6-5.6-18-6.8-27.2-1.6-13.2-7.2-26.8-17.6-35.2-10.8-8-27.6-9.2-36.8 0.4-4 4-6 9.2-7.6 14.4-4 13.6-4 27.6-4 41.6 0 10.8 0.8 23.6 10 29.6 4.4 2.8 9.6 4 14.8 4.4 11.6 1.6 23.2 2.8 34.4 2.8 50.8 1.2 100.8-13.2 146.8-34.4 22.4-10.4 44-22.4 65.2-35.2l0.4-0.4c28.4-30.8 39.2-74 36-115.2-0.8-8.4-1.6-17.2-2.4-26-0.4 1.2-0.4 2.4-0.4 3.6-0.8 11.2-0.8 22-1.2 32.4z" fill="#D79039" p-id="17555"></path><path d="M240.8 400.4c-4.8 24.8-9.6 50-14.4 74.8-1.6 9.2-2.4 20.4 5.2 25.6 6.8 4.4 16.4 0 21.6-6.4 5.2-6.4 8.4-14.4 13.6-20.4 5.2-6 14.8-10.4 21.6-5.6 13.6 9.2-1.2 38.4 14 44.8 7.2 3.2 14.8-2.4 19.6-8.4 4.4-6 8-13.6 14.8-17.6 11.2-6.4 26 1.2 32 12.4 6 11.2 6 24.8 5.6 37.6-0.8 31.2-2 62-2.8 93.2-0.4 6.8-0.4 14.4 4 19.6 7.2 9.2 22.8 6.8 30.4-2.4 7.6-8.8 8.8-21.6 8.8-33.2 0-14.8-1.6-30 0.8-44.8 2.8-14.8 10.4-29.6 24-35.6 13.6-6.4 32.8-0.4 36.8 14 1.2 4.8 1.2 10.4 2.8 14.8 3.6 9.2 15.2 14 24.8 12.4 10-1.6 18.4-8 25.2-15.6 7.2-7.2 14-16.4 24-18.4 14-3.2 27.6 8.8 32.4 22.4 5.2 13.2 4.4 28 6.4 42.4 1.6 11.6 7.6 25.6 19.6 26.4 8.8 0.8 16.4-6.4 19.6-14.8 3.2-8.4 2.4-17.2 2.4-26-0.4-17.6 1.2-36 10.4-50.8 9.2-14.8 28-25.2 44.4-19.6 10.4 3.6 19.6 12.8 30.4 10.4 8.4-1.6 13.6-10 16.4-18 2.8-8 3.6-16.8 7.6-24.4 4.4-7.6 13.2-13.2 21.2-10 10.8 4.4 9.6 20 15.2 30.4 1.2 2 2.8 4.4 5.2 4.8 6 1.6 9.6-6.4 10.4-12.4 1.2-14-0.8-28.4-1.6-42.4-1.6-25.2 0.8-50.8 6.8-75.6-3.6-10-7.6-19.6-12.8-28.8-5.6-10.4-21.2-11.2-29.2-19.6-13.2-14-30.8-23.6-48.4-32.4-23.6-12-47.6-23.2-73.6-28.4-18-3.6-36.4-4.4-54.4-5.2-72.8-2.8-147.6-4.4-216.8 18-19.2 6.4-38 14.4-56.4 22.4-15.2 6.4-31.2 13.6-42.4 25.6-6.8 7.6-20.8 20-25.6 29.2-1.2 2.8-2.4 5.2-4 8 4.4 8.4 6.4 18 4.4 27.6z" fill="#8E431F" p-id="17556"></path><path d="M324.8 387.2a189.6 77.2 0 1 0 379.2 0 189.6 77.2 0 1 0-379.2 0Z" fill="#A05625" p-id="17557"></path><path d="M646 335.6c-7.2-0.8-15.2 0.8-20.4 6-4.4 4-6.4 10-9.6 14.8s-8.8 9.2-14.4 8c-3.6-0.8-6.4-4-8.4-6.8-3.2-4.8-6-10-10-14.4s-9.6-7.6-15.2-7.2c-5.2 0.8-9.6 4.8-12.4 9.2-2.4 4.8-3.2 10-3.6 15.6-0.8 10.8-0.8 21.6 0.4 32 0.4 3.2 0.8 6.8 0.4 10.4-1.2 6.4-6 11.6-12 14-6 2.4-12.8 1.6-18.4-1.2-2.4-1.2-4.8-2.8-6.4-4.8-4.4-5.2-4.4-12.4-4-19.2 0.4-11.6 0.8-23.2-1.2-34.4-0.4-3.6-1.6-7.6-4-10.4-2.4-2.8-6.8-4.4-10-2.8-4 2-5.2 7.6-8.4 10.8-4.8 4.4-12.8 1.6-18.4-2-5.6-3.6-11.6-8-18-6.4-7.2 1.6-10.8 10-11.2 17.2-0.4 5.6 0 11.6-0.4 17.2s-2.4 11.6-6.8 15.2c-4.4 3.6-12 4-15.6-0.8-1.2-1.6-2-3.6-2.8-5.6-2.4-6.8-2.8-14.8-9.2-18.4-7.2-4.4-16-4.8-24-3.6-9.2 1.2-18.4 4.8-27.6 6-6.4 0.8-14.4 0-17.6-6-2.4-4-1.2-9.6 1.6-13.6s6.8-6.4 10.8-9.2c21.2-13.6 43.2-28 68-33.2 14.4-3.2 29.2-3.2 44-3.2h128c11.2 0 22.4 0 33.6 2.4 7.2 1.6 14 4 21.2 5.6 7.2 1.6 14.8 2.8 20.4 7.6 3.6 3.2 8.4 12 4.4 16.4-3.2 3.6-17.2-4.8-22.8-5.2z" fill="#7B3719" p-id="17558"></path><path d="M788 448.8c-5.6-28.8 8.4-59.2 1.2-88-8.4-33.6-42.8-53.6-74.4-68.4-27.2-12.4-55.2-24.4-84.8-29.6-14.8-2.8-30-3.6-44.8-4.8-55.6-3.6-111.6-6.4-166.4 2.4-54.8 8.4-109.2 29.2-150 66.8-18.8 17.2-35.2 40-33.6 65.6 0.4 8 2.8 16 2 24-0.8 6.8-3.6 12.8-6 19.2-4.4 11.6-7.6 24-9.6 36.4-1.6 10.4 0.4 23.6 10 26.4 10 2.8 18-8.8 22-18.4 4-9.6 11.2-21.2 21.6-19.6 7.6 1.2 12.4 9.6 13.2 17.2 1.2 7.6 0 15.6 2 23.2s8.8 14.8 16.4 13.2c10.4-2 11.6-16.4 18-24.8 8.4-11.2 27.2-10.4 37.2-0.8 10.4 9.6 13.6 24.8 12.4 38.8-1.2 14-5.6 27.6-8.8 41.2-3.6 16.8-5.2 34-4 50.8 0.4 9.2 2 19.2 7.6 26.8 5.6 7.6 16 12.4 24.4 8.8 11.2-4.8 13.2-19.6 12.4-32-0.8-17.6-4-35.6-1.6-53.2 2-17.6 10.4-35.6 26-44 15.6-8.4 38.8-2.4 44.4 14.4 2.4 7.6 1.2 16.4 6 22.4 8 10.8 26 5.2 35.6-4.4 9.6-9.6 17.2-22.4 30-26.4 18.4-5.6 36.8 11.6 42 29.6 5.2 18.4 2 38 2.4 57.2 0 4.8 0.8 10.4 4 14 7.2 8.4 22.4 2.8 26.8-7.2 4.4-10 2-22 0.4-32.8-2.8-20.4-2.4-42.4 9.2-59.6 11.6-16.8 37.2-25.2 53.6-12.4 4.8 3.6 8.8 8.8 14.4 10.4 9.2 2 17.6-7.2 20.4-16.4 2.8-9.2 2.8-19.2 8.4-27.2 5.2-7.2 14.4-11.2 23.2-10 8.8 1.2 16.4 8 19.2 16.4 2 6 1.2 12.4 2.8 18.8 1.2 6 5.6 12.8 12 13.2 5.6 0.4 10.4-4 12.8-9.2 10.8-21.2-5.6-45.2-10-68z m-119.2-57.6c-3.2 6-9.2 10-15.2 13.6-52 29.6-114.8 30.8-174.4 28-19.6-0.8-39.6-2.4-58.4-7.6-15.6-4.4-30.4-11.6-45.2-18.8-5.2-2.4-10-4.8-14-9.2-8-8.8-6-24.8 4-31.2 10-6.8 25.2-2.8 30.8 7.6 3.6 6.8 3.6 15.6 9.6 20 5.2 4 12 2.8 18.4 1.6 2-0.4 3.6-0.8 5.2-2 2.8-2.4 2.8-6.8 2.4-10.4-1.2-8.4-3.2-16.8-1.6-24.8 1.6-8.4 8-16.4 16.4-16 6.4 0 11.6 4.8 16.8 8 5.2 3.6 12.4 6 17.6 2 2.4-1.6 3.6-4.8 6-6.4 3.6-2.4 9.2-1.6 12.4 1.2 3.2 2.8 5.2 7.2 6 11.6 3.2 16.8-4.4 37.2 6.4 50.4 7.6 9.2 25.2 9.2 30.8-1.6 3.6-6.8 1.6-15.2 0.4-22.8-1.2-7.6-2-15.2-2-22.8 0-4.8 0.4-10 2-14.8 5.6-14 27.2-18 37.6-6.4 3.6 4 5.6 8.8 8.4 12.8 3.2 4 8 7.6 13.2 6.4 6.8-1.6 9.2-9.6 13.2-14.8 8.4-11.6 26.4-12.8 38-4.8 11.6 7.6 17.6 22.4 18 36.4 0 5.2-0.4 10.4-2.8 14.8z" fill="#F3DE9F" p-id="17559"></path><path d="M466.8 476.8c4.4-2.8 9.6-2.4 13.2 1.6 10.4 10.4 26.4-5.6 16-16-10.8-10.8-28-13.2-40.8-5.2-12.4 7.6-1.2 27.2 11.6 19.6z" fill="#7B3719" p-id="17560"></path><path d="M534.4 478c6-4.8 14.4-5.2 21.6-2.8 14 4.4 20-17.6 6-22-15.6-4.8-31.2-1.2-43.6 8.8-4.8 3.6-4 12 0 16 4.8 4.8 11.2 3.6 16 0z" fill="#A05625" p-id="17561"></path><path d="M603.2 464.4c2.4-4.8 14.8-5.2 20-3.6 14.4 3.2 20.4-18.4 6-22-14.8-3.6-37.6-0.8-45.6 14-6.8 13.2 12.8 24.4 19.6 11.6z" fill="#BF792A" p-id="17562"></path><path d="M669.6 444.8c2-2.8 6.4-4 9.6-3.6 6 1.2 12.4-1.6 14-8 1.6-5.6-2-12.8-8-14-14-3.2-27.2 2.4-35.2 14-3.6 5.2-0.8 12.8 4 15.6 6 3.6 12 1.2 15.6-4z" fill="#7B3719" p-id="17563"></path><path d="M714.8 411.6c0-0.4 0-3.6-0.4-1.2 0-0.8 0.4-1.6 0.8-2.4 0.4-1.2-0.8 0.8 0.4-0.8 1.6-2.4-1.6 0.8 0.8-1.2 0 0 2.4-2 1.2-1.2-0.8 0.8 1.2-0.8 1.6-0.8-1.6 0.8 0.8-0.4 1.2-0.4-1.6 0.4 0.4 0 1.2 0 6 0 11.2-5.2 11.2-11.2 0-6.4-5.2-11.2-11.2-11.2-16 0-30.8 14.4-29.6 30.8 0.4 6 4.8 11.2 11.2 11.2 6-0.4 12-5.6 11.6-11.6z" fill="#A05625" p-id="17564"></path><path d="M726.8 354.8c1.2 0.4 0.8 1.2 0 0 0.4 0.8 0.4 0.4 0-0.8 0 0.8 0 0.8 0 0-0.4-2.8 0.4-5.2 1.2-8 1.2-6-2-12.4-8-14-5.6-1.6-12.4 2-14 8-3.2 12.8-2.8 26.8 9.6 34.4 5.2 3.2 12.4 1.2 15.6-4 3.2-5.6 0.8-12.4-4.4-15.6z" fill="#BF792A" p-id="17565"></path><path d="M696.4 311.2c2.4 0.8-0.4-0.4-0.4-0.4-2-1.2 0.8 0.8-0.4 0-1.2-1.2-2.8-2.4-4-3.2-3.6-3.2-7.6-5.6-12.4-6.8-5.6-1.6-12.8 2-14 8-1.2 6 1.6 12.4 8 14 2.8 0.8-1.6-1.2 0.8 0 0.8 0.4 1.2 0.8 2 1.2 1.2 0.8-1.2-1.2 0.4 0.4 0.8 0.8 1.6 1.2 2 2 4 3.2 7.2 5.6 12 7.6 5.6 2.4 12.8-2.4 14-8 1.2-7.6-2-12.4-8-14.8z" fill="#7B3719" p-id="17566"></path><path d="M648 292.8c-11.6-9.6-26.4-13.2-41.2-8.8-14 4.4-8 26 6 22 6.4-2 13.6-1.6 19.2 2.8 4.8 4 11.6 4.8 16 0 4-4 4.8-12.4 0-16z" fill="#A05625" p-id="17567"></path><path d="M579.6 276.8c-13.2-8.4-28.4-8.4-42.8-4-14 4-8 26 6 22 9.2-2.8 17.2-3.6 25.6 1.6 12.4 7.6 23.6-12 11.2-19.6z" fill="#BF792A" p-id="17568"></path><path d="M513.2 275.6c-13.6-10.8-33.6-14-46.8-0.4-10.4 10.4 5.6 26.4 16 16 4-4 10.8-2.8 14.8 0.4 4.8 4 11.6 4.8 16 0 4-4 4.8-12.4 0-16z" fill="#7B3719" p-id="17569"></path><path d="M445.6 280.4c-14.4-6.8-29.6-4.8-42 5.6-4.8 4-4 12 0 16 4.8 4.8 11.2 4 16 0 4-3.2 10-4 14.4-2 5.6 2.4 12.4 1.6 15.6-4 3.2-5.2 1.6-13.2-4-15.6z" fill="#A05625" p-id="17570"></path><path d="M379.2 298.4c-12-3.2-25.6 0.4-33.2 10.4-4 4.8-4.8 11.2 0 16 4 4 12.4 4.8 16 0 0.4-0.4 2.8-3.2 2-2.4 0.4-0.4 3.6-2 2.8-1.6 2.8-0.8 3.2-0.8 6.4-0.4 14 4 20-18 6-22z" fill="#BF792A" p-id="17571"></path><path d="M322.8 326.8c-13.6 2-26 14-28 28-0.8 6 1.6 12.4 8 14 5.2 1.6 13.2-2 14-8 1.2-7.6 4.8-10.8 12-12 6-0.8 9.6-8.4 8-14-1.6-6.8-7.6-8.8-14-8z" fill="#7B3719" p-id="17572"></path><path d="M299.2 378.8c-6.8 11.2-2.8 23.6 3.6 34 7.2 12.8 26.8 1.2 19.6-11.6-1.2-2.4-2.8-4.8-3.6-7.6-0.8-2.4-0.4-2.4 0.4-3.6 7.2-12.4-12.4-23.6-20-11.2z" fill="#A05625" p-id="17573"></path><path d="M335.2 437.2c8.4 0.4 16.8 3.2 23.2 8.4 4.8 4 11.2 4.8 16 0 4-4 4.8-12 0-16-11.6-9.2-24.4-14.4-39.2-15.2-14.4-0.4-14.4 22 0 22.8z" fill="#7B3719" p-id="17574"></path><path d="M397.2 459.2c9.2-2.4 17.6 1.2 23.6 8 9.6 11.2 25.6-5.2 16-16-11.2-13.2-29.2-18-45.6-14-14.4 3.6-8.4 25.6 6 22z" fill="#BF792A" p-id="17575"></path></svg>