<?xml version="1.0" standalone="no"?><!DOCTYPE svg PUBLIC "-//W3C//DTD SVG 1.1//EN" "http://www.w3.org/Graphics/SVG/1.1/DTD/svg11.dtd"><svg t="1604219366920" class="icon" viewBox="0 0 1024 1024" version="1.1" xmlns="http://www.w3.org/2000/svg" p-id="3193" xmlns:xlink="http://www.w3.org/1999/xlink" width="200" height="200"><defs><style type="text/css"></style></defs><path d="M448 927.9H300.9c-51 0-92.4-43.1-92.4-96v-347c0-17.7 14.3-32 32-32s32 14.3 32 32v347c0 17.6 12.7 32 28.4 32H448c17.7 0 32 14.3 32 32s-14.3 32-32 32zM723.1 927.9H576c-17.7 0-32-14.3-32-32s14.3-32 32-32h147.1c15.7 0 28.4-14.4 28.4-32v-347c0-17.7 14.3-32 32-32s32 14.3 32 32v347c0 52.9-41.5 96-92.4 96z" fill="#2c2c2c" p-id="3194"></path><path d="M882.6 509.9H143.7c-19.8 0-37.2-12.1-44.4-30.9-7.5-19.4-2.5-40.9 12.8-54.7l335.7-303.9c17.3-15.6 39.4-24.2 62.2-24.2 22.8 0 44.9 8.6 62.2 24.2l340.6 308.4c14.5 13.1 19.2 33.4 12.1 51.8-6.9 17.7-23.5 29.3-42.3 29.3z m-12.8-33.8z m-686.2-30.2h652.8L529.2 167.8c-11.3-10.2-27.1-10.2-38.5 0L183.6 445.9zM576 927.9c-17.7 0-32-14.3-32-32V703.4h-64v192.5c0 17.7-14.3 32-32 32s-32-14.3-32-32V701.4c0-34.2 27.8-62 62-62h68c34.2 0 62 27.8 62 62v194.5c0 17.7-14.3 32-32 32z" fill="#2c2c2c" p-id="3195"></path></svg>