<?xml version="1.0" standalone="no"?><!DOCTYPE svg PUBLIC "-//W3C//DTD SVG 1.1//EN" "http://www.w3.org/Graphics/SVG/1.1/DTD/svg11.dtd"><svg t="1606046629572" class="icon" viewBox="0 0 1024 1024" version="1.1" xmlns="http://www.w3.org/2000/svg" p-id="2810" width="64" height="64" xmlns:xlink="http://www.w3.org/1999/xlink"><defs><style type="text/css"></style></defs><path d="M1008.64 515.41504c0-272.42496-221.63968-494.01856-494.04928-494.01856-272.39936 0-493.99296 221.5936-493.99296 494.01856 0 141.53728 59.93472 269.27104 155.63264 359.41888l-0.34816 0.44032 12.4928 10.96704c1.664 1.49504 3.51232 2.7648 5.21728 4.21376 8.7808 7.54176 17.7664 14.8224 27.06432 21.70368 2.59072 1.93024 5.23776 3.73248 7.84384 5.61664 9.9584 7.10656 20.11136 13.94688 30.57152 20.28544 1.66912 0.98304 3.3792 1.90464 5.04832 2.8928 11.04896 6.53312 22.38976 12.69248 33.99168 18.39616 0.65536 0.3072 1.29024 0.66048 1.93024 0.98816 12.49792 6.05184 25.32352 11.48928 38.3488 16.46592 0.94208 0.39936 1.90976 0.768 2.83136 1.14176 12.75904 4.78208 25.8304 9.02144 39.05536 12.76416 1.24928 0.34816 2.47808 0.70656 3.712 1.05472 12.9792 3.56864 26.17856 6.59456 39.55712 9.11872 1.54112 0.26624 3.03104 0.52736 4.56704 0.78336 13.21984 2.37568 26.59328 4.25984 40.15616 5.5296 1.5104 0.128 3.00032 0.22016 4.49024 0.32768 13.81888 1.16224 27.74016 1.90464 41.86624 1.90464 14.10048 0 28.04736-0.74752 41.84064-1.90464 1.46432-0.10752 2.96448-0.19968 4.4544-0.32768 13.5936-1.26976 26.97216-3.15904 40.23808-5.5296 1.46432-0.26624 2.90816-0.47616 4.4032-0.78336 13.4656-2.52416 26.73152-5.55008 39.78752-9.11872 1.14176-0.31232 2.2784-0.66048 3.42016-0.98304 13.34784-3.79904 26.51136-8.05376 39.37792-12.9024 0.79872-0.28672 1.5616-0.60928 2.3296-0.9216 13.24544-5.06368 26.22976-10.56768 38.88128-16.73216 0.36864-0.17408 0.76288-0.37376 1.14176-0.57344 12.02176-5.87264 23.7056-12.2368 35.1488-19.03104 1.40288-0.83456 2.85184-1.62304 4.25984-2.45248 10.72128-6.49216 21.08928-13.4656 31.26272-20.74624 2.37056-1.6896 4.7872-3.33312 7.13216-5.06368 9.53344-7.08608 18.74432-14.5408 27.74016-22.30272 1.57696-1.31584 3.24608-2.49344 4.80256-3.86048l12.43648-10.96704-0.3072-0.39424C948.7104 784.73216 1008.64 656.95744 1008.64 515.41504L1008.64 515.41504 1008.64 515.41504 1008.64 515.41504M54.4768 515.41504c0-253.7216 206.39744-460.16 460.11904-460.16 253.7216 0 460.16512 206.39744 460.16512 460.16 0 131.52768-55.57248 250.25536-144.38912 334.20288-32.5376-31.45216-82.58048-57.63072-141.68064-73.96352-26.74176-11.8016-32.70144-14.6944-39.4496-20.06528l-7.17312-7.14752c-10.78272-10.48576-16.73216-16.27648-18.83648-31.88736l0-70.70208c18.9696-22.06208 30.96576-51.45088 42.76224-90.15296 15.9232-6.08768 31.80032-26.22464 36.82304-48.6144 5.37088-24.18688 2.83136-44.47232-6.38464-55.74656 25.98912-98.304 21.99552-182.27712-11.14112-226.176-17.41312-23.1424-42.76224-35.3792-73.30816-35.39968-2.83136-2.29888-4.66944-4.81792-6.99392-7.9872-11.93472-16.31232-24.6272-27.89376-79.86688-27.89376l-5.92384 0.04608c-66.33472 0-116.61824 19.98336-149.46304 59.42784C327.5776 263.8848 315.648 344.45312 334.11072 452.9664c-7.936 11.36128-10.34752 30.34624-6.0928 52.9152 4.01408 21.07392 17.32608 40.15104 32.23552 47.9744 14.52032 42.24 29.64992 71.59808 47.02208 91.27424 1.00864 31.98976 1.31584 68.08576 0.06656 74.9312-1.86368 9.91744-7.1936 19.03616-16.83968 28.68736-9.05728 9.0368-21.12 15.65696-46.18752 25.64096-61.7728 17.03424-112.57856 43.43296-145.45408 75.19744C110.01856 765.6704 54.47168 646.94272 54.4768 515.41504L54.4768 515.41504 54.4768 515.41504 54.4768 515.41504M800.3584 875.66848c-7.57248 5.98528-15.24224 11.75552-23.1168 17.23904-1.78176 1.22368-3.48672 2.56512-5.3248 3.76832-9.1904 6.25152-18.6624 12.02176-28.26752 17.54112-2.0224 1.18272-4.03968 2.37568-6.08256 3.51744-9.86624 5.47328-19.93216 10.58816-30.17216 15.30368-1.64864 0.78336-3.33824 1.5104-5.00224 2.2784-10.83392 4.86912-21.84192 9.35936-33.02912 13.37344-0.56832 0.19968-1.14176 0.35328-1.68448 0.56832-23.44448 8.26368-47.54432 14.60736-72.08448 18.99008-1.44384 0.26624-2.85184 0.53248-4.3008 0.768-11.58144 1.95072-23.28576 3.48672-35.06176 4.53632-1.80224 0.1536-3.64032 0.26624-5.45792 0.41984-12.02176 0.96256-24.05888 1.55648-36.18816 1.55648-12.13952 0-24.20736-0.60928-36.21888-1.55648-1.82272-0.13312-3.64032-0.24064-5.45792-0.41984-11.78112-1.04448-23.44448-2.5856-35.0464-4.53632-1.44384-0.24064-2.87744-0.50688-4.31616-0.768-24.47872-4.38272-48.53248-10.7008-71.8848-18.944-0.66048-0.22016-1.31584-0.4352-1.97632-0.68096-11.07968-3.968-21.97504-8.44288-32.72192-13.26592-1.8176-0.81408-3.64032-1.62304-5.41696-2.43712-10.0864-4.66944-19.99872-9.71264-29.73696-15.10912-2.25792-1.2288-4.50048-2.54464-6.69184-3.84-9.38496-5.41696-18.64192-11.07456-27.66848-17.14688-2.10944-1.42848-4.15232-2.96448-6.23616-4.4544-7.40864-5.17632-14.66368-10.61376-21.79584-16.2304-1.73056-1.3824-3.49184-2.7136-5.20192-4.10112 28.79488-26.98752 74.0096-49.8176 130.71872-65.54624 27.49952-10.84928 45.12768-19.42528 59.42784-33.77152 14.52032-14.5152 23.0912-29.76256 26.20928-46.4896 2.60608-14.34112 0.84992-71.44448 0.26112-88.62208l-0.22016-6.62016-4.66944-4.66944c-16.61952-16.7936-31.29344-45.70112-46.27456-90.92096l-1.00352-11.70944-12.74368 0.48128c-3.00544-1.36192-12.12416-10.96704-14.66368-24.6016-2.2784-11.93472-1.48992-20.59264-0.41984-24.832l11.24864-1.87904-3.09248-16.93184c-18.83648-102.7584-9.84576-177.05984 26.69568-220.91264 26.1376-31.36512 67.64544-47.24224 123.67872-47.24224l5.69856-0.06656c42.30656 0 46.81728 6.20544 52.54144 14.00832 4.03456 5.5296 9.55904 13.0816 20.61312 19.60448l4.34688 2.59072 9.21088-0.34816c20.13184 0 35.30752 7.18848 46.4384 21.92384 27.67872 36.66944 28.55936 116.49024 2.3296 208.32768l-2.71872 16.29696 12.89728 4.10112c1.03424 3.90144 1.7152 12.89728-1.05472 25.44128-2.2784 10.17344-8.15104 18.0224-12.23168 21.84192l-13.81888-10.34752-6.84032 23.53152c-12.0576 41.6-23.94624 73.28768-42.71104 92.8256l-4.74112 4.9152 0.128 86.17984c3.6864 29.49632 16.5376 41.97376 28.96896 54.05696l7.92064 7.74656c11.8784 9.73312 21.16096 14.03392 50.91328 26.97728 54.64576 15.2576 99.15904 37.86752 127.62624 64.59904-1.46432 1.32096-3.0208 2.49856-4.5312 3.6864l0 0 0 0L800.3584 875.66336M800.3584 875.66848 800.3584 875.66848z" p-id="2811" fill="#8a8a8a"></path></svg>