<?xml version="1.0" standalone="no"?><!DOCTYPE svg PUBLIC "-//W3C//DTD SVG 1.1//EN" "http://www.w3.org/Graphics/SVG/1.1/DTD/svg11.dtd"><svg t="1607071588223" class="icon" viewBox="0 0 1024 1024" version="1.1" xmlns="http://www.w3.org/2000/svg" p-id="2691" xmlns:xlink="http://www.w3.org/1999/xlink" width="64" height="64"><defs><style type="text/css"></style></defs><path d="M625.3568 498.5344a30.7456 30.7456 0 0 1-20.0192-14.1312L511.744 330.3424 418.2016 484.4032a30.7712 30.7712 0 0 1-19.5584 14.0288c-8.1408 1.8432-16.6912 0.256-23.6544-4.352L305.664 448.2048l46.6944 128.1024h313.8048l43.6736-125.5936-60.5184 42.8544a30.80192 30.80192 0 0 1-23.9616 4.9664z" fill="#FF623E" p-id="2692"></path><path d="M514.4576 51.6608c-253.3888 0-458.8544 205.4144-458.8544 458.8544 0 253.3888 205.4144 458.8544 458.8544 458.8544s458.8544-205.4144 458.8544-458.8544c-0.0512-253.44-205.4656-458.8544-458.8544-458.8544z m184.6784 708.608H320.7168c-16.9472 0-30.72-13.7728-30.72-30.72s13.7728-30.72 30.72-30.72h378.4192c16.9472 0 30.72 13.7728 30.72 30.72s-13.7728 30.72-30.72 30.72z m100.2496-380.0576l-82.3296 236.8512a30.73536 30.73536 0 0 1-29.0304 20.6336H330.9056a30.8224 30.8224 0 0 1-28.8768-20.1728l-86.016-235.9296a30.77632 30.77632 0 0 1 9.8304-34.6624 30.7712 30.7712 0 0 1 35.9936-1.4848l120.4736 79.7696 103.2192-170.0352a30.76096 30.76096 0 0 1 26.2656-14.7968c10.752 0 20.6848 5.5808 26.2656 14.7968l102.7072 169.1648L752.64 345.088a30.65856 30.65856 0 0 1 36.1984 0.512 30.6688 30.6688 0 0 1 10.5472 34.6112z" fill="#FF623E" p-id="2693"></path></svg>