<?xml version="1.0" standalone="no"?><!DOCTYPE svg PUBLIC "-//W3C//DTD SVG 1.1//EN" "http://www.w3.org/Graphics/SVG/1.1/DTD/svg11.dtd"><svg t="1606555657065" class="icon" viewBox="0 0 1024 1024" version="1.1" xmlns="http://www.w3.org/2000/svg" p-id="13230" xmlns:xlink="http://www.w3.org/1999/xlink" width="64" height="64"><defs><style type="text/css"></style></defs><path d="M888 789H136c-39.76 0-72-32.24-72-72V307c0-39.76 32.24-72 72-72h752c39.76 0 72 32.24 72 72v410c0 39.76-32.24 72-72 72z" fill="#F7F9FB" p-id="13231"></path><path d="M683.35 677.5H527.67c-11.89 0-20.65-11.13-17.86-22.69l68.55-283.62c3.5-14.49 16.47-24.69 31.37-24.69h148.45c15.87 0 27.56 14.85 23.83 30.27l-66.58 275.47c-3.58 14.82-16.84 25.26-32.08 25.26z" fill="#007E86" p-id="13232"></path><path d="M509.81 654.81l68.55-283.62c3.5-14.49 16.47-24.69 31.37-24.69H467.56c-18.33 0-34.27 12.55-38.57 30.36l-64.97 268.8c-3.92 16.23 8.37 31.84 25.06 31.84h138.58c-11.88 0-20.64-11.13-17.85-22.69z" fill="#004480" p-id="13233"></path><path d="M364.02 645.66l64.97-268.8c4.31-17.81 20.25-30.36 38.57-30.36h-122c-18.33 0-34.27 12.55-38.57 30.36l-64.97 268.8c-3.92 16.23 8.37 31.84 25.06 31.84h122c-16.68 0-28.98-15.62-25.06-31.84z" fill="#F7002D" p-id="13234"></path><path d="M439.68 466.99c-1.81 0.24-2.27 1.09-2.49 2.69-0.55 4.01-1.23 8-1.92 11.99-1.11 6.34-2.89 12.5-5.04 18.56-0.58 1.64-0.32 2.42 1.72 2.34 5.03-0.18 10.07-0.18 15.1-0.2 1.3 0 2.15-0.36 2.38-1.76 1.87-11.52 4.87-22.79 7.55-34.13 0.16-0.69 0.56-1.49-0.16-2.16-5.83 0.93-11.47 1.92-17.14 2.67zM421.78 454.82c-1.88-0.39-3.74-0.35-5.63-0.14-4.32 0.48-8.2 2.12-11.91 4.44-0.29-1.21 0.24-2.1 0.49-3.02 0.42-1.52 0.01-2.22-1.6-1.87-5.26 1.15-10.58 1.94-15.91 2.68-1.53 0.21-1.97 0.94-2.11 2.3-0.51 4.94-1.38 9.82-2.34 14.68-1.73 8.77-3.86 17.45-5.99 26.13-0.61 2.47-0.55 2.52 1.92 2.49 4.48-0.06 8.96-0.26 13.43-0.12 2.12 0.07 2.76-0.79 3.13-2.65 1.79-9.04 3.78-18.04 5.49-27.1 0.5-2.64 1.85-3.78 4.29-4.3 3.43-0.73 5.15 0.76 4.7 4.22-0.62 4.71-1.55 9.37-2.59 14.01-1.16 5.16-2.36 10.32-3.59 15.68 0.56 0.15 0.82 0.29 1.08 0.29 5.18-0.03 10.35-0.4 15.54-0.19 1.47 0.06 1.82-0.96 2.03-2.17 1.28-7.51 2.85-14.95 4.5-22.39 1.06-4.76 2.49-9.48 2.29-14.45-0.2-4.57-2.77-7.59-7.22-8.52zM384.25 421.87c-0.37-0.05-0.71-0.13-1.05-0.13-5.6-0.04-11.2-0.02-16.81-0.14-1.28-0.03-1.3 0.7-1.48 1.53-2.38 11.06-4.71 22.13-7.19 33.17-1.62 7.22-2.75 14.57-5.36 21.53-2.93 7.81-8.56 11.56-16.56 11.14-4.95-0.26-8.21-3.37-8.66-8.27-0.41-4.46 0.61-8.82 1.6-13.06 3-12.78 6.36-25.47 9.6-38.19 0.63-2.48 1.33-4.95 2.05-7.63h-22.76c-0.42 1.87-0.84 3.7-1.24 5.53-3.45 15.83-7.49 31.53-10.48 47.46-0.67 3.56-1.46 7.18-1.27 10.81 0.41 8.04 4.17 12.76 12.19 15.11 10.26 3 20.6 2.67 30.85-0.17 10.18-2.83 17.29-9.17 21.04-19.11 0.98-2.61 1.88-5.27 2.58-7.97 4.1-15.89 8.15-31.79 12.18-47.7 0.31-1.27 1.04-2.46 0.77-3.91zM457.12 451.19c-5.03-3.07-15.01-0.57-18.04 4.51-1.51 2.54-0.93 5.15 1.58 6.71 1.7 1.07 3.62 1.42 6.33 1.44 3.89-0.25 8.13-1.44 11.21-5.15 2.28-2.74 1.79-5.77-1.08-7.51zM637.36 464.9c-5.34 6.25-7.35 13.89-8.08 21.87-1.06 11.62 6.35 16.93 16.76 17.18 3.55 0.08 6.44-1.41 9.32-3.33-0.15 2.76-0.1 2.9 2.42 2.73 4.9-0.34 9.8-0.37 14.7-0.28 1.53 0.03 2.21-0.48 2.47-2.09 1.47-8.95 3.28-17.84 5.38-26.67 1.34-5.63 2.69-11.27 4.01-16.9 0.23-0.99 0.74-2.36-1.14-2.07-5.72 0.89-11.43 1.9-17.15 2.82-1.02 0.16-1.43 0.73-1.63 1.88-2.72-3.22-5.77-5.25-9.84-4.68-6.92 0.96-12.71 4.26-17.22 9.54z m15.07 4.67c1.44-2.43 4.06-3.34 6.32-2.64 2.04 0.63 3.29 3.19 3.27 7.52-1.06 4.38-1.61 9.7-4.02 14.51-1.35 2.68-3.84 3.81-6.68 4.08-2.4 0.23-4.19-1.39-4.06-4.25 0.32-6.75 1.67-13.32 5.17-19.22zM497.44 522.58c-2.72 0.06-5.93-1-8.01 0.41-1.97 1.33-2.97 4.3-4.07 6.7-1.58 3.44-3.88 5.36-7.84 4.79-0.77-0.11-1.54-0.04-1.83 0.96-0.9 3.07-1.84 6.13-2.86 9.53 2.92 0 5.44 0.08 7.94-0.02 4.45-0.18 8.46-1.72 11.92-4.5 1.07-0.86 2.1-1.19 3.43-1.19 6.65 0.04 13.3 0.03 19.95 0 0.78 0 1.86 0.37 2.2-0.7 1.04-3.28 1.97-6.59 3.03-10.16h-17.25c0.6-2.12 2.07-3.66 2.53-5.84-3.14 0-6.14-0.05-9.14 0.02zM583.48 502.58c3 0 2.98 0.01 3.56-2.9 1.56-7.8 3.18-15.59 5.11-23.31 0.48-1.92 1.41-2.97 3.64-2.88 5.18 0.2 10.36-0.09 15.49-0.79 6.82-0.94 13.2-3.07 18.54-7.63 8.08-6.9 11.94-15.92 12.61-26.3 0.56-8.61-4.11-14.41-12.54-16.29-4.6-1.02-9.3-1.11-13.98-1.23-9.8-0.23-19.6 0.67-29.4-0.06-1.8-0.13-1.92 1-2.14 2.13-4.36 21.91-9.83 43.56-15.14 65.24-1.11 4.53-2.16 9.08-3.33 14.01 6.12 0.01 11.85 0 17.58 0.01z m18.53-68.83c2.25-0.4 4.43 0.41 6.65 0.37 1.74-0.03 3.48 0.24 5.22 0.41 3.91 0.39 6.68 3.36 6.95 7.41 0.64 9.73-6.65 17.92-16.38 18.36-2.76 0.12-5.52 0.66-8.53 0.11 2.05-8.96 4.06-17.76 6.09-26.66zM485.79 502.91c8.05-1.32 14.71-4.91 18.81-12.24 3.67-6.58 5.63-13.67 5.49-21.26-0.12-6.64-3.72-11.33-10.08-13.36-3.94-1.26-7.99-1.43-12.04-1.12-9.65 0.74-17.49 4.66-22.29 13.45-3.2 5.86-4.71 12.21-5.05 17.73-0.23 9.6 3.76 14.69 12.03 16.48 4.35 0.95 8.75 1.04 13.13 0.32z m-3.15-32.7c0.95-2.08 2.31-3.82 4.71-4.43 2.4-0.61 3.95 0.24 4.62 2.61 0.57 2.01 0.25 4.01-0.07 6.02-0.63 3.93-1.53 7.8-2.96 11.53-0.55 1.45-1.26 2.8-2.24 4-1.77 2.15-4.01 3.06-5.85 2.21-2.21-1.02-2.41-3.05-2.39-5.18 0.63-5.78 1.75-11.44 4.18-16.76zM512.48 502.57c4.48-0.16 8.96-0.31 13.44-0.17 2.23 0.07 3.07-0.68 3.43-2.81 1.52-8.96 3.65-17.79 5.38-26.71 0.6-3.08 2.25-4.2 4.93-4.68 2.66-0.47 4.29 0.87 4.13 3.53-0.08 1.32-0.27 2.64-0.48 3.95-1.36 8.35-3.43 16.55-5.32 24.79-0.14 0.6-0.48 1.18-0.07 1.84 0.17 0.06 0.36 0.2 0.55 0.2 5.18 0 10.36-0.03 15.54-0.03 1.65 0 2.11-1.08 2.31-2.43 1.05-6.9 2.63-13.7 4.06-20.53 1.13-5.38 2.89-10.67 2.71-16.28-0.13-4.25-2.56-7.31-6.66-8.31-2.06-0.5-4.14-0.53-6.25-0.27-4.24 0.52-8.12 2-11.84 4.44-0.33-1.32 0.2-2.22 0.41-3.15 0.37-1.65-0.21-2-1.75-1.72-5.23 0.93-10.46 1.85-15.71 2.64-1.49 0.22-1.97 0.87-2.13 2.27-0.4 3.33-0.88 6.65-1.46 9.96-1.84 10.54-4.42 20.91-6.97 31.29-0.44 1.76-0.02 2.24 1.75 2.18zM740.15 454.88c-0.6-0.8-1.39-0.3-2.12-0.16-4.53 0.82-9.03 1.83-13.63 2.27-1.82 0.17-2.99 0.93-3.71 2.77-2.43 6.23-6.07 11.87-9.09 17.85 0.11-3.33-0.51-6.57-0.57-9.84-0.07-3.71-0.29-7.41-0.5-11.11-0.06-1.14-0.25-2.48-1.87-2.14-5.2 1.08-10.42 2.02-15.66 2.84-1.2 0.19-1.58 0.99-1.34 2.16 0.77 3.7 1.09 7.46 1.62 11.19 1.38 9.82 2.53 19.67 3.6 29.53 0.15 1.35 0.32 2.72-0.48 4.07-4.62 7.83-9.04 15.77-13.95 23.43-1.21 1.9-2.54 3.08-4.9 2.78-0.81-0.1-1.71-0.15-2.04 0.97-0.89 3-1.8 6-2.8 9.33 3.7 0.56 7.05 0.4 10.39 0.39 5.53 0 9.83-2.21 12.62-7.17 3.46-6.15 7.09-12.21 10.47-18.41 10.78-19.77 22.2-39.19 33.44-58.7 0.34-0.61 1.15-1.21 0.52-2.05zM498.49 591.29c-3.04 0.41-6.07 1.05-9.17 0.42-1.5-0.31-2.17-0.82-1.57-2.55 1.24-3.63 2.32-7.33 3.33-11.03 0.36-1.33 0.95-1.77 2.31-1.75 4.62 0.08 9.25 0.04 13.87 0.02 0.79 0 1.74 0.26 2.08-0.89 0.96-3.18 1.93-6.36 3.02-9.92h-17.45c0.92-3 1.74-5.66 2.59-8.44h2.37c4.34 0 8.69 0.01 13.03-0.01 0.65 0 1.51 0.3 1.81-0.62 1.02-3.16 2-6.32 2.99-9.45-0.42-0.19-0.55-0.29-0.67-0.29-13.66-0.03-27.32-0.05-40.98-0.06-0.55 0-1.18-0.01-1.39 0.68-0.98 3.16-1.93 6.33-2.99 9.81h9.68c-0.73 2.45-1.47 4.64-2.02 6.87-0.3 1.22-0.93 1.54-2.07 1.51-2.17-0.06-4.34-0.02-6.51-0.01-0.77 0-1.6-0.08-1.89 0.9-0.98 3.26-1.94 6.52-2.99 10.03h9.66c-1.88 6.24-3.73 12.24-5.5 18.26-0.92 3.13 1.02 6.49 4.18 7.31 1.01 0.26 2.06 0.49 3.1 0.5 6.58 0.07 13.17 0.08 19.75 0.1 0.61 0 1.35 0.12 1.6-0.67 1.09-3.57 2.16-7.16 3.25-10.82-1.37-0.27-2.39-0.04-3.42 0.1zM584 524.73c0.18-0.62 0.66-1.27 0.17-2.07-0.37-0.04-0.78-0.13-1.19-0.13-7.22 0.02-14.45-0.26-21.64 0.17-6.35 0.38-12.65 1.57-17.83 5.85-0.38 0.31-0.76 0.8-1.46 0.57 0.57-2.07 1.12-4.07 1.79-6.47-4.64 0-8.9 0.06-13.16-0.03-1.52-0.03-2.22 0.46-2.65 1.94-1.98 6.85-4.08 13.66-6.12 20.49-5.04 16.87-10.11 33.74-15.1 50.62-0.97 3.28 0.88 5.95 4.27 6.52 0.96 0.16 1.94 0.29 2.92 0.31 4.97 0.12 9.94 0.24 14.92 0.29 4.87 0.05 4.92 0.03 6.24-4.64 0.69-2.44 1.73-4.8 1.94-7.66-3.11 0.32-6.01 0.65-8.92 0.92-3.29 0.3-4.03-0.54-3.11-3.68 2.06-6.97 4.23-13.91 6.24-20.89 0.4-1.4 1.05-1.63 2.36-1.62 9.11 0.05 18.22 0.1 27.32-0.05 5.33-0.09 9.55-2.4 12.2-7.22 1.21-2.21 2.18-4.53 2.91-6.95 2.66-8.75 5.3-17.5 7.9-26.27z m-28.21 30.53c-6.92 0.03-13.84 0.01-20.9 0.01-0.04-1.41 0.54-2.4 0.79-3.48 0.17-0.74 0.59-1.02 1.34-1.02 7.41 0.04 14.83 0.06 22.24 0.09 0.13 0 0.25 0.11 0.38 0.17 0.05 3.49-0.56 4.21-3.85 4.23z m8.14-16.46c-0.27 0.98-1.02 0.97-1.83 0.97-2.94-0.01-5.88-0.04-8.82 0.04-4.86 0.13-9.31 1.69-13.45 4.17-0.54 0.32-1.08 0.63-1.62 0.94-0.05 0.03-0.13 0-0.42-0.02 0.99-3.21 1.98-6.38 2.93-9.55 0.2-0.65 0.59-0.91 1.22-0.91h23.23c-0.48 1.7-0.87 3.02-1.24 4.36z" fill="#FFFFFF" p-id="13235"></path><path d="M671.83 543.91c-8.62 0-17.23-0.01-25.85 0.02-0.71 0-1.7-0.38-2.03 0.6-1.08 3.27-2.18 6.53-2.91 10.16h17.8c-0.35 2.35-1.26 4.33-1.76 6.41-0.32 1.34-0.97 1.77-2.33 1.75-4.97-0.07-9.95-0.04-14.92-0.02-0.65 0-1.54-0.29-1.84 0.59-0.95 2.87-2 5.72-2.56 9.05h15.77c-3.89 5.49-7.66 10.53-11.13 15.78-2.32 3.5-5.96 4.68-10.52 3.71 0.02-1.37 1.02-2.59 0.76-4.02-1.15-0.65-2.52 0.14-3.61-0.53-0.27-0.57 0-1.01 0.14-1.48 5.03-16.64 10.08-33.27 15.06-49.92 0.43-1.45 1.04-2.01 2.6-1.98 3.87 0.07 3.28 0.54 4.4-3.16 0.06-0.21 0.09-0.57 0.53-0.55 0 1.06-0.01 2.11 0 3.16 0.05 4.88 2.53 7.56 7.43 7.74 3.85 0.15 7.7 0.04 11.56 0.03 0.54 0 1.19 0.11 1.42-0.59 1.05-3.27 2.2-6.53 2.92-9.9-2.01-0.66-4.26 0.56-5.51-0.85-1.26-1.41-0.74-3.62-0.71-5.48 0.02-1.52-0.58-1.88-1.98-1.9-11.77-0.11-23.52 0.26-35.27 0.86-4.12 0.21-8 1.22-11.47 3.55-0.31 0.21-0.64 0.56-1.17 0.34 0.03-1.55 1.16-2.94 0.85-4.77-3.13 0-6.2-0.05-9.27 0.02-2.15 0.05-4.74-0.86-6.34 0.41-1.5 1.19-1.46 3.81-2.06 5.81-5.8 19.18-11.57 38.36-17.33 57.55-0.41 1.36-0.79 2.54-2.6 2.23-0.74-0.13-1.33 0.11-1.59 0.98-0.92 3.13-1.9 6.24-2.98 9.74h31.11c0.43 1.3-0.62 2.16-0.06 3.38 4.79 0 9.68-0.01 14.57 0.01 0.71 0 0.92-0.45 1.16-0.99 1.2-2.73 1.34-2.78 4.48-2.1 0.28 1.02-0.74 1.94-0.26 3.16 4.15 0.19 8.33 0.12 12.52-0.01 4.51-0.14 8.08-2.08 10.79-5.59 2.48-3.21 4.82-6.53 7.24-9.8 0.42-0.57 0.74-1.29 1.62-1.59 0.5 3.27 1.01 6.36 1.43 9.47 0.33 2.45 1.5 4.14 3.62 5.54 2.62 1.73 5.48 1.49 8.3 1.7 5.39 0.4 5.42 0.34 6.98-4.79 0.68-2.23 1.6-4.4 1.86-6.73-1.06-0.44-1.98-0.27-2.88-0.29-3.14-0.08-3.34-0.3-3.78-3.41-0.47-3.32-1.11-6.61-1.58-9.93-0.15-1.08-0.64-1.41-1.65-1.39-1.72 0.04-3.45 0.01-5.27 0.01 1.47-3.05 2.19-3.53 5.11-3.53 4.69 0 9.39 0.01 14.08-0.01 0.65 0 1.57 0.31 1.85-0.55 0.96-2.87 1.81-5.78 2.81-9h-17.01c0.73-2.34 1.48-4.36 1.98-6.44 0.34-1.39 1.06-1.71 2.37-1.69 4.48 0.06 8.97 0.03 13.45 0.02 0.67 0 1.57 0.23 1.84-0.61 1.05-3.28 2.02-6.59 3.1-10.17h-2.69c-6.86-0.01-13.72-0.01-20.59-0.01z m-61.04 43.03c-0.17 0.56-0.54 0.79-1.08 0.79h-11.35c1.15-3.78 2.21-7.23 3.25-10.69 0.18-0.61 0.51-0.93 1.19-0.92 3.62 0.02 7.25 0.01 11.23 0.01-1.14 3.78-2.2 7.29-3.24 10.81z m7.06-23.38c-0.15 0.5-0.45 0.89-1.01 0.93-4.37 0.31-8.4 1.77-12.72 3.99 1.38-4.52 2.57-8.46 3.77-12.39 0.2-0.66 0.28-1.39 1.26-1.39 3.69 0.02 7.38 0.01 11.36 0.01-0.94 3.15-1.8 6-2.66 8.85z m6.31-20.85c-0.2 0.69-0.7 1.1-1.37 1.12-4.21 0.08-8.02 1.66-12.21 3.41 1.33-4.34 2.55-8.3 3.75-12.28 0.2-0.66 0.6-0.88 1.23-0.88h11.17c-0.91 3.05-1.74 5.84-2.57 8.63zM565.25 566.8c-5.46 0.03-4.21-0.66-5.81 4.18-0.35 1.08-0.71 2.24-2.07 2.33-1.51 0.1-3.03 0.02-4.49 0.02-0.52-1.56-0.04-2.87 0-4.18 0.03-0.93-0.06-1.68-1.28-1.68-4.4 0.02-8.8 0.01-13.23 0.01-0.18 0.42-0.28 0.54-0.29 0.67-0.63 9.57-0.35 19.17-0.7 28.75-0.12 3.37 1.53 4.88 4.94 5.27 5.79 0.66 11.6 0.36 17.41 0.42 0.65 0.01 1.34-0.01 1.57-0.75 1.05-3.37 2.06-6.75 3.07-10.09-0.99-0.49-1.78-0.33-2.53-0.3-2.38 0.1-4.75 0.27-7.12 0.39-1.22 0.06-2.44-0.29-2.52-1.63-0.17-2.69-0.05-5.39-0.05-8.08 3.19-0.36 6.04-0.51 8.91-0.56 3.48-0.07 6.52-1.37 8.46-4.28 2-3.02 2.17-6.66 2.85-10.27-2.53-0.43-4.83-0.23-7.12-0.22z" fill="#FFFFFF" p-id="13236"></path></svg>